<svg width="144" height="36" viewBox="0 0 144 36" fill="none" xmlns="http://www.w3.org/2000/svg">
<path d="M14.4508 27.8813H11.3367V26.2789H19.1757V27.8813H16.0616V35.7864H14.3434V27.8813H14.4508ZM26.9074 35.7864H21.216V26.2789H26.6926V27.8813H22.8268V30.2315H26.263V31.8338H22.8268V34.2908H26.8V35.7864H26.9074ZM35.1759 26.2789H37.1088L33.8873 30.8724L37.2162 35.6795H35.2833L32.8135 32.1543L30.3436 35.6795H28.4107L31.7396 30.8724L28.5181 26.2789H30.451L32.8135 29.6973L35.1759 26.2789ZM46.9882 35.7864H45.27V31.727H40.9747V35.7864H39.2565V26.2789H40.9747V30.1246H45.3774V26.2789H46.9882V35.7864ZM49.458 31.0861C49.458 29.6973 49.8875 28.5223 50.854 27.5608C51.8204 26.5994 53.0017 26.1721 54.3977 26.1721C55.7937 26.1721 56.9749 26.5994 57.9413 27.5608C58.9078 28.5223 59.3373 29.6973 59.3373 31.0861C59.3373 32.4748 58.9078 33.6499 57.9413 34.6113C56.9749 35.5727 55.7937 36 54.3977 36C53.0017 36 51.8204 35.5727 50.854 34.6113C49.8875 33.6499 49.458 32.4748 49.458 31.0861ZM51.1761 31.0861C51.1761 32.0475 51.4983 32.7953 52.0352 33.4362C52.5721 34.0772 53.4312 34.3976 54.2903 34.3976C55.2567 34.3976 56.0084 34.0772 56.6527 33.4362C57.1896 32.7953 57.5118 32.0475 57.5118 31.0861C57.5118 30.1246 57.1896 29.27 56.5453 28.7359C55.901 28.095 55.1493 27.7745 54.2903 27.7745C53.3238 27.7745 52.5721 28.095 52.0352 28.7359C51.4983 29.27 51.1761 30.1246 51.1761 31.0861ZM68.7871 35.7864H67.1763V27.8813H64.3844L64.1696 29.6973C64.0622 30.7656 63.9548 31.727 63.7401 32.4748C63.5253 33.2226 63.4179 33.8635 63.2031 34.2908C62.9884 34.7181 62.7736 35.1454 62.4515 35.3591C62.1293 35.5727 61.9145 35.7864 61.5924 35.7864C61.2702 35.8932 60.9481 35.8932 60.5185 35.7864V34.184C60.7333 34.184 60.8407 34.184 61.0555 34.184C61.1628 34.184 61.3776 33.9703 61.485 33.7567C61.6998 33.543 61.8072 33.2226 61.9145 32.7953C62.2367 31.8338 62.4515 30.3383 62.6662 28.2018L62.7736 26.2789H68.7871V35.7864ZM71.2569 31.0861C71.2569 29.6973 71.6865 28.5223 72.6529 27.5608C73.6194 26.5994 74.8006 26.1721 76.1966 26.1721C77.5926 26.1721 78.7738 26.5994 79.7403 27.5608C80.7067 28.5223 81.1363 29.6973 81.1363 31.0861C81.1363 32.4748 80.7067 33.6499 79.7403 34.6113C78.7738 35.5727 77.5926 36 76.1966 36C74.8006 36 73.6194 35.5727 72.6529 34.6113C71.6865 33.6499 71.2569 32.4748 71.2569 31.0861ZM73.0825 31.0861C73.0825 32.0475 73.4046 32.7953 73.9415 33.4362C74.4785 34.0772 75.3375 34.3976 76.1966 34.3976C77.1631 34.3976 77.9148 34.0772 78.5591 33.4362C79.096 32.7953 79.4181 32.0475 79.4181 31.0861C79.4181 30.1246 79.096 29.27 78.4517 28.7359C77.8074 28.095 77.0557 27.7745 76.1966 27.7745C75.2302 27.7745 74.4785 28.095 73.9415 28.7359C73.2972 29.27 73.0825 30.1246 73.0825 31.0861ZM85.3243 35.7864H83.6061V26.2789H88.9753V27.8813H85.3243V35.7864ZM92.9485 35.7864H91.2304V26.2789H92.9485V35.7864ZM95.4184 24.6766C95.4184 24.4629 95.5257 24.2493 95.6331 24.0356C95.8479 23.9288 96.0627 23.822 96.2774 23.822C96.4922 23.822 96.707 23.9288 96.9217 24.0356C97.1365 24.1424 97.1365 24.3561 97.1365 24.6766C97.1365 24.997 97.0291 25.2107 96.9217 25.3175C96.8143 25.4243 96.5996 25.5312 96.2774 25.5312C96.0627 25.5312 95.8479 25.4243 95.6331 25.3175C95.5257 25.1039 95.4184 24.8902 95.4184 24.6766ZM98.2103 35.7864H96.4922V26.2789H98.2103V35.7864ZM97.6734 24.6766C97.6734 24.4629 97.7808 24.2493 97.8882 24.0356C98.103 23.9288 98.3177 23.822 98.5325 23.822C98.7473 23.822 98.962 23.9288 99.1768 24.0356C99.3916 24.2493 99.3916 24.3561 99.3916 24.6766C99.3916 24.997 99.2842 25.2107 99.1768 25.3175C99.0694 25.5312 98.8546 25.5312 98.5325 25.5312C98.2103 25.5312 97.9956 25.4243 97.8882 25.3175C97.7808 25.1039 97.6734 24.8902 97.6734 24.6766ZM111.633 33.6499L112.278 34.9318C111.955 35.2522 111.526 35.4659 110.989 35.6795C110.452 35.8932 109.808 36 109.271 36C107.768 36 106.586 35.5727 105.727 34.6113C104.868 33.7567 104.331 32.5816 104.331 31.0861C104.331 29.6973 104.761 28.5223 105.62 27.5608C106.479 26.5994 107.66 26.1721 109.164 26.1721C110.345 26.1721 111.311 26.4926 112.063 27.1335L111.311 28.4154C110.667 27.9881 109.915 27.7745 109.164 27.7745C108.304 27.7745 107.553 28.095 106.908 28.6291C106.372 29.27 106.049 30.0178 106.049 31.0861C106.049 32.0475 106.372 32.9021 106.908 33.543C107.553 34.184 108.304 34.5045 109.271 34.5045C110.237 34.3976 110.989 34.184 111.633 33.6499ZM122.157 35.7864H120.546V31.727H116.143V35.7864H114.425V26.2789H116.143V30.1246H120.546V26.2789H122.157V35.7864ZM131.499 26.2789H133.218L129.996 33.543C129.674 34.2908 129.244 34.8249 128.922 35.2522C128.493 35.5727 128.063 35.7864 127.419 35.7864C126.774 35.7864 126.452 35.6795 126.13 35.3591L126.667 33.9703C126.882 34.0772 127.097 34.184 127.419 34.184C127.848 34.184 128.17 33.9703 128.385 33.543L128.493 33.2226L124.305 26.2789H126.238L129.352 31.6202L131.499 26.2789Z" fill="#535353"/>
<path d="M9.40978 10.0415L18.6448 21.2582H12.7387L5.32918 11.9644V21.2582H0.71167V0.21365H5.32918V8.75964L12.4165 0.21365H18.1079L9.40978 10.0415ZM103.586 4.59347H110.029V21.2582H114.646V4.59347H121.089V0.21365H103.478V4.59347H103.586ZM31.9604 12.819L38.5108 21.2582H32.9269L27.4503 13.7804H25.7321V21.2582H21.1146V0.21365H21.6515C22.618 0.21365 23.6918 0.21365 24.8731 0.21365C26.0543 0.21365 27.0208 0.21365 27.7724 0.21365C34.2155 0.21365 35.6115 3.8457 35.6115 6.94362C35.6115 8.54599 35.1819 9.93472 34.3229 11.003C33.5712 11.7507 32.8195 12.3917 31.9604 12.819ZM26.2691 4.59347C26.0543 4.59347 25.9469 4.59347 25.7321 4.59347V9.40059H27.4503C28.4167 9.40059 29.2758 9.18694 29.9201 8.65282C30.457 8.22552 30.7792 7.58457 30.7792 6.8368C30.7792 5.76855 30.457 4.48665 27.5577 4.48665C27.4503 4.48665 27.3429 4.48665 27.1281 4.48665C26.9134 4.59347 26.5912 4.59347 26.2691 4.59347ZM96.176 0.21365L105.089 21.2582H100.149L98.1089 16.1306H90.2699L88.2296 21.2582H83.5047L92.3102 0.21365H96.176ZM94.1357 6.62315L91.9881 11.7507H96.2834L94.1357 6.62315ZM143.855 10.7893C143.855 13.8872 142.781 16.5579 140.74 18.5875C138.7 20.6172 136.015 21.6855 132.901 21.6855C129.787 21.6855 127.103 20.724 125.062 18.6944C123.022 16.6647 121.948 14.1009 121.948 10.8961C121.948 7.90505 123.022 5.23442 125.062 3.20475C127.103 1.17507 129.787 0.106825 132.901 0.106825C136.015 0.106825 138.7 1.06825 140.74 3.09792C142.781 4.91395 143.855 7.58457 143.855 10.7893ZM137.411 15.3828C138.593 14.1009 139.13 12.6053 139.13 10.6825C139.13 8.75964 138.593 7.2641 137.304 5.9822C136.123 4.80712 134.619 4.16617 132.901 4.16617C131.076 4.16617 129.68 4.80712 128.499 5.9822C127.317 7.15727 126.78 8.75964 126.78 10.6825C126.78 12.6053 127.317 14.1009 128.499 15.276C129.68 16.5579 131.076 17.092 132.901 17.092C134.834 17.1988 136.23 16.6647 137.411 15.3828ZM80.9275 0.21365L75.5583 14.1009L69.9743 0.21365H65.0347L73.7328 21.2582H77.1691L85.6524 0.21365H80.9275Z" fill="#535353"/>
<path d="M61.2305 2.13799C59.9386 0.855195 58.2162 0.106899 56.3861 0.106899C54.556 0.106899 52.8335 0.855195 51.5417 2.13799L51.2187 2.45869L50.7881 2.03109C49.4963 0.748296 47.7739 0 45.9438 0C44.1137 0 42.3912 0.748296 41.0994 2.03109C39.8075 3.31388 39.054 5.02427 39.054 6.84156C39.054 8.65885 39.8075 10.3692 41.0994 11.652L50.4652 20.9523C50.6805 21.1661 50.8958 21.273 51.2187 21.273C51.5417 21.273 51.757 21.1661 51.9723 20.9523L61.3381 11.652C62.63 10.3692 63.3835 8.65885 63.3835 6.84156C63.3835 5.02427 62.63 3.42078 61.2305 2.13799Z" fill="#00B5FF"/>
<mask id="mask0_84_1996" style="mask-type:alpha" maskUnits="userSpaceOnUse" x="39" y="0" width="25" height="22">
<path d="M61.2305 2.13799C59.9386 0.855195 58.2162 0.106899 56.3861 0.106899C54.556 0.106899 52.8335 0.855195 51.5417 2.13799L51.2187 2.45869L50.7881 2.03109C49.4963 0.748296 47.7739 0 45.9438 0C44.1137 0 42.3912 0.748296 41.0994 2.03109C39.8075 3.31388 39.054 5.02427 39.054 6.84156C39.054 8.65885 39.8075 10.3692 41.0994 11.652L50.4652 20.9523C50.6805 21.1661 50.8958 21.273 51.2187 21.273C51.5417 21.273 51.757 21.1661 51.9723 20.9523L61.3381 11.652C62.63 10.3692 63.3835 8.65885 63.3835 6.84156C63.3835 5.02427 62.63 3.42078 61.2305 2.13799Z" fill="#00B5FF"/>
</mask>
<g mask="url(#mask0_84_1996)">
<rect x="38.2515" y="8.84804" width="25.7722" height="12.9295" fill="#FFBC00"/>
</g>
</svg>
