<svg width="38" height="33" viewBox="0 0 38 33" fill="none" xmlns="http://www.w3.org/2000/svg">
<path d="M33.7885 4.01102C31.8641 2.08168 29.3133 0.904127 26.5967 0.691059C23.8801 0.477992 21.1768 1.24346 18.9753 2.8492C16.6655 1.13122 13.7906 0.35221 10.9295 0.669034C8.0684 0.985859 5.4336 2.37499 3.55568 4.55668C1.67777 6.73837 0.696241 9.55057 0.808754 12.427C0.921267 15.3034 2.11946 18.0303 4.16206 20.0587L15.4353 31.3501C16.3794 32.2792 17.6508 32.7999 18.9753 32.7999C20.2998 32.7999 21.5712 32.2792 22.5152 31.3501L33.7885 20.0587C35.908 17.9261 37.0977 15.0415 37.0977 12.0348C37.0977 9.02813 35.908 6.14356 33.7885 4.01102ZM31.2288 17.5535L19.9555 28.8268C19.8273 28.9563 19.6746 29.0591 19.5063 29.1293C19.3381 29.1995 19.1576 29.2356 18.9753 29.2356C18.793 29.2356 18.6125 29.1995 18.4442 29.1293C18.2759 29.0591 18.1233 28.9563 17.995 28.8268L6.72169 17.499C5.29802 16.0437 4.50082 14.0888 4.50082 12.053C4.50082 10.0171 5.29802 8.06224 6.72169 6.60696C8.17243 5.17463 10.129 4.37149 12.1677 4.37149C14.2064 4.37149 16.163 5.17463 17.6138 6.60696C17.7825 6.77711 17.9833 6.91216 18.2045 7.00432C18.4257 7.09648 18.663 7.14393 18.9026 7.14393C19.1423 7.14393 19.3796 7.09648 19.6008 7.00432C19.822 6.91216 20.0228 6.77711 20.1915 6.60696C21.6423 5.17463 23.5989 4.37149 25.6376 4.37149C27.6763 4.37149 29.6329 5.17463 31.0836 6.60696C32.5268 8.04317 33.3502 9.98747 33.3774 12.0234C33.4045 14.0593 32.6333 16.0248 31.2288 17.499V17.5535Z" fill="#B1B1B1"/>
</svg>
