<svg width="36" height="36" viewBox="0 0 36 36" fill="none" xmlns="http://www.w3.org/2000/svg">
<path d="M21.1956 28.2228C21.6614 28.2228 22.1081 28.039 22.4375 27.7119C22.7669 27.3848 22.9519 26.9411 22.9519 26.4785V22.9899C22.9519 22.5273 22.7669 22.0837 22.4375 21.7566C22.1081 21.4294 21.6614 21.2457 21.1956 21.2457C20.7298 21.2457 20.2831 21.4294 19.9537 21.7566C19.6243 22.0837 19.4393 22.5273 19.4393 22.9899V26.4785C19.4393 26.9411 19.6243 27.3848 19.9537 27.7119C20.2831 28.039 20.7298 28.2228 21.1956 28.2228ZM14.1704 28.2228C14.6362 28.2228 15.0829 28.039 15.4123 27.7119C15.7416 27.3848 15.9267 26.9411 15.9267 26.4785V22.9899C15.9267 22.5273 15.7416 22.0837 15.4123 21.7566C15.0829 21.4294 14.6362 21.2457 14.1704 21.2457C13.7046 21.2457 13.2578 21.4294 12.9285 21.7566C12.5991 22.0837 12.414 22.5273 12.414 22.9899V26.4785C12.414 26.9411 12.5991 27.3848 12.9285 27.7119C13.2578 28.039 13.7046 28.2228 14.1704 28.2228ZM29.9772 7.29145H27.5535L24.5151 1.27369C24.4222 1.05226 24.2844 0.852229 24.1102 0.686093C23.936 0.519958 23.7291 0.391291 23.5026 0.308133C23.2761 0.224975 23.0347 0.189113 22.7936 0.202789C22.5524 0.216464 22.3167 0.279383 22.1012 0.387613C21.8857 0.495844 21.6949 0.647059 21.5409 0.831811C21.3869 1.01656 21.2729 1.23088 21.206 1.46136C21.1392 1.69185 21.1209 1.93356 21.1523 2.17138C21.1838 2.4092 21.2643 2.63802 21.3888 2.84354L23.6193 7.29145H11.7466L13.9772 2.84354C14.1476 2.43696 14.1569 1.98138 14.0032 1.56828C13.8494 1.15517 13.544 0.815116 13.1483 0.616388C12.7525 0.41766 12.2957 0.374972 11.8696 0.496893C11.4435 0.618814 11.0796 0.896318 10.8509 1.27369L7.81249 7.29145H5.38878C4.1474 7.3102 2.95255 7.76371 2.01498 8.57198C1.07741 9.38025 0.45735 10.4914 0.26415 11.7094C0.0709495 12.9274 0.317025 14.174 0.958975 15.2294C1.60093 16.2848 2.59751 17.0812 3.77297 17.478L5.07264 30.4903C5.2037 31.7856 5.81617 32.9858 6.79044 33.8567C7.76472 34.7275 9.03085 35.2064 10.3416 35.1999H25.0595C26.3703 35.2064 27.6364 34.7275 28.6107 33.8567C29.5849 32.9858 30.1974 31.7856 30.3285 30.4903L31.6281 17.478C32.8061 17.08 33.8043 16.2807 34.4458 15.2218C35.0873 14.1628 35.3307 12.9126 35.133 11.6925C34.9352 10.4724 34.3091 9.36118 33.3654 8.55566C32.4217 7.75013 31.2215 7.30228 29.9772 7.29145ZM26.7983 30.1415C26.7546 30.5732 26.5504 30.9733 26.2257 31.2636C25.9009 31.5539 25.4789 31.7135 25.0419 31.7113H10.324C9.88711 31.7135 9.46507 31.5539 9.14031 31.2636C8.81555 30.9733 8.61139 30.5732 8.56771 30.1415L7.32072 17.7571H28.0452L26.7983 30.1415ZM29.9772 14.2686H5.38878C4.92297 14.2686 4.47625 14.0848 4.14688 13.7577C3.8175 13.4306 3.63246 12.9869 3.63246 12.5243C3.63246 12.0617 3.8175 11.618 4.14688 11.2909C4.47625 10.9638 4.92297 10.78 5.38878 10.78H29.9772C30.443 10.78 30.8897 10.9638 31.2191 11.2909C31.5485 11.618 31.7335 12.0617 31.7335 12.5243C31.7335 12.9869 31.5485 13.4306 31.2191 13.7577C30.8897 14.0848 30.443 14.2686 29.9772 14.2686Z" fill="white"/>
</svg>
