<svg width="1415" height="530" viewBox="0 0 1415 530" fill="none" xmlns="http://www.w3.org/2000/svg">
<g opacity="0.2">
<path d="M888.625 98.8462L922.911 90.4029L916.214 117.044L888.625 98.8462Z" stroke="white" stroke-width="5"/>
<path d="M906.558 101.541L940.844 93.0979L934.147 119.739L906.558 101.541Z" stroke="white" stroke-width="5"/>
<path d="M888.625 109.626L922.911 101.183L916.214 127.824L888.625 109.626Z" stroke="white" stroke-width="5"/>
</g>
<path opacity="0.2" d="M1017.5 259.461C1017.5 261.747 1016.28 264.081 1013.77 265.962C1011.27 267.844 1007.65 269.111 1003.5 269.111C999.353 269.111 995.733 267.844 993.228 265.962C990.725 264.081 989.5 261.747 989.5 259.461C989.5 257.176 990.725 254.842 993.228 252.961C995.733 251.078 999.353 249.811 1003.5 249.811C1007.65 249.811 1011.27 251.078 1013.77 252.961C1016.28 254.842 1017.5 257.176 1017.5 259.461Z" stroke="white" stroke-width="7"/>
<path d="M428.772 201.14H423.133V170.809H424.486L426.722 173.455C427.228 172.976 427.781 172.525 428.383 172.101C428.984 171.677 429.606 171.315 430.249 171.014C430.905 170.7 431.582 170.454 432.279 170.276C432.977 170.098 433.681 170.009 434.392 170.009C435.937 170.009 437.386 170.29 438.739 170.85C440.106 171.397 441.296 172.176 442.308 173.188C443.333 174.2 444.14 175.423 444.728 176.859C445.315 178.281 445.609 179.86 445.609 181.596C445.609 183.401 445.315 185.028 444.728 186.477C444.14 187.913 443.333 189.136 442.308 190.148C441.296 191.146 440.106 191.912 438.739 192.445C437.386 192.978 435.937 193.245 434.392 193.245C433.899 193.245 433.407 193.19 432.915 193.081C432.437 192.971 431.958 192.828 431.479 192.65C431.015 192.458 430.55 192.247 430.085 192.014C429.634 191.782 429.196 191.542 428.772 191.296V201.14ZM439.99 181.596C439.99 180.667 439.84 179.833 439.539 179.094C439.252 178.356 438.855 177.734 438.35 177.228C437.844 176.708 437.249 176.312 436.565 176.039C435.882 175.765 435.157 175.628 434.392 175.628C433.626 175.628 432.901 175.765 432.218 176.039C431.548 176.312 430.96 176.708 430.454 177.228C429.948 177.734 429.545 178.356 429.244 179.094C428.957 179.833 428.813 180.667 428.813 181.596C428.813 182.485 428.957 183.298 429.244 184.037C429.545 184.775 429.948 185.404 430.454 185.923C430.96 186.443 431.548 186.846 432.218 187.133C432.901 187.42 433.626 187.564 434.392 187.564C435.157 187.564 435.882 187.42 436.565 187.133C437.249 186.846 437.844 186.443 438.35 185.923C438.855 185.404 439.252 184.775 439.539 184.037C439.84 183.298 439.99 182.485 439.99 181.596Z" fill="white" fill-opacity="0.2"/>
<path d="M308.358 113.338C308.358 114.979 308.064 116.51 307.477 117.932C306.889 119.34 306.089 120.564 305.077 121.603C304.065 122.628 302.876 123.442 301.509 124.043C300.155 124.631 298.699 124.925 297.141 124.925C295.596 124.925 294.14 124.631 292.772 124.043C291.419 123.442 290.229 122.628 289.204 121.603C288.192 120.564 287.393 119.34 286.805 117.932C286.217 116.51 285.923 114.979 285.923 113.338C285.923 111.67 286.217 110.125 286.805 108.704C287.393 107.282 288.192 106.058 289.204 105.033C290.229 103.994 291.419 103.18 292.772 102.592C294.14 102.004 295.596 101.71 297.141 101.71C298.699 101.71 300.155 101.991 301.509 102.551C302.876 103.098 304.065 103.884 305.077 104.91C306.089 105.921 306.889 107.145 307.477 108.581C308.064 110.002 308.358 111.588 308.358 113.338ZM302.719 113.338C302.719 112.436 302.568 111.623 302.268 110.898C301.98 110.16 301.584 109.531 301.078 109.011C300.572 108.478 299.978 108.075 299.294 107.801C298.624 107.514 297.906 107.371 297.141 107.371C296.375 107.371 295.65 107.514 294.967 107.801C294.297 108.075 293.709 108.478 293.203 109.011C292.711 109.531 292.321 110.16 292.034 110.898C291.747 111.623 291.604 112.436 291.604 113.338C291.604 114.186 291.747 114.972 292.034 115.697C292.321 116.421 292.711 117.05 293.203 117.583C293.709 118.117 294.297 118.541 294.967 118.855C295.65 119.156 296.375 119.306 297.141 119.306C297.906 119.306 298.624 119.163 299.294 118.875C299.978 118.588 300.572 118.185 301.078 117.666C301.584 117.146 301.98 116.517 302.268 115.779C302.568 115.041 302.719 114.227 302.719 113.338Z" fill="white" fill-opacity="0.2"/>
<path d="M490.772 349.364H485.133V318.664H490.772V338.023L499.119 327.441H505.559L498.278 336.587L505.559 349.364H499.119L494.669 341.386L490.772 346.554V349.364Z" fill="white" fill-opacity="0.2"/>
<path d="M363.91 431.273H358.045V410.273C358.045 409.863 357.963 409.48 357.799 409.124C357.648 408.769 357.437 408.461 357.163 408.201C356.903 407.928 356.596 407.716 356.24 407.566C355.885 407.415 355.502 407.34 355.092 407.34C354.682 407.34 354.299 407.415 353.943 407.566C353.588 407.716 353.273 407.928 353 408.201C352.74 408.461 352.535 408.769 352.385 409.124C352.234 409.48 352.159 409.863 352.159 410.273V431.273H346.273V410.273C346.273 409.863 346.198 409.48 346.048 409.124C345.897 408.769 345.686 408.461 345.412 408.201C345.152 407.928 344.845 407.716 344.489 407.566C344.134 407.415 343.751 407.34 343.341 407.34C342.931 407.34 342.548 407.415 342.192 407.566C341.837 407.716 341.522 407.928 341.249 408.201C340.989 408.461 340.784 408.769 340.634 409.124C340.483 409.48 340.408 409.863 340.408 410.273V431.273H334.522V410.273C334.522 409.056 334.748 407.914 335.199 406.848C335.664 405.768 336.293 404.831 337.086 404.038C337.893 403.232 338.829 402.603 339.896 402.152C340.976 401.687 342.124 401.454 343.341 401.454C344.435 401.454 345.487 401.653 346.499 402.049C347.511 402.432 348.42 402.992 349.227 403.731C350.033 402.992 350.936 402.432 351.934 402.049C352.945 401.653 353.998 401.454 355.092 401.454C356.309 401.454 357.45 401.687 358.517 402.152C359.597 402.603 360.533 403.232 361.326 404.038C362.133 404.831 362.762 405.768 363.213 406.848C363.678 407.914 363.91 409.056 363.91 410.273V431.273Z" fill="white" fill-opacity="0.2"/>
<path d="M663.041 406.129C663.041 407.483 662.863 408.789 662.508 410.046C662.166 411.291 661.674 412.459 661.031 413.553C660.389 414.633 659.623 415.625 658.734 416.527C657.846 417.416 656.854 418.181 655.761 418.824C654.667 419.466 653.491 419.965 652.233 420.321C650.989 420.663 649.69 420.833 648.337 420.833H639.478V391.425H648.337C649.69 391.425 650.989 391.603 652.233 391.958C653.491 392.3 654.667 392.792 655.761 393.435C656.854 394.078 657.846 394.85 658.734 395.752C659.623 396.641 660.389 397.632 661.031 398.726C661.674 399.806 662.166 400.975 662.508 402.233C662.863 403.477 663.041 404.776 663.041 406.129ZM657.155 406.129C657.155 404.913 656.923 403.771 656.458 402.705C656.007 401.638 655.378 400.708 654.571 399.916C653.778 399.109 652.842 398.473 651.762 398.008C650.695 397.543 649.554 397.311 648.337 397.311H645.404V414.948H648.337C649.554 414.948 650.695 414.722 651.762 414.271C652.842 413.806 653.778 413.177 654.571 412.384C655.378 411.578 656.007 410.641 656.458 409.575C656.923 408.495 657.155 407.346 657.155 406.129Z" fill="white" fill-opacity="0.2"/>
<path d="M849.907 65.106C849.907 66.3228 849.674 67.4644 849.209 68.5308C848.745 69.5972 848.109 70.5337 847.302 71.3403C846.509 72.1333 845.58 72.7622 844.513 73.2271C843.447 73.6919 842.305 73.9243 841.088 73.9243H826.384V44.5161H841.088C842.305 44.5161 843.447 44.7485 844.513 45.2134C845.58 45.6782 846.509 46.314 847.302 47.1206C848.109 47.9136 848.745 48.8433 849.209 49.9097C849.674 50.9761 849.907 52.1177 849.907 53.3345C849.907 53.8813 849.832 54.4419 849.681 55.0161C849.531 55.5903 849.319 56.144 849.045 56.6772C848.772 57.2104 848.444 57.6958 848.061 58.1333C847.678 58.5708 847.254 58.9331 846.79 59.2202C847.268 59.48 847.699 59.8354 848.082 60.2866C848.464 60.7241 848.792 61.2095 849.066 61.7427C849.339 62.2759 849.544 62.8364 849.681 63.4243C849.832 63.9985 849.907 64.5591 849.907 65.106ZM832.27 68.0386H841.088C841.499 68.0386 841.881 67.9634 842.237 67.813C842.592 67.6626 842.9 67.4575 843.16 67.1978C843.433 66.9243 843.645 66.6099 843.795 66.2544C843.946 65.8989 844.021 65.5161 844.021 65.106C844.021 64.6958 843.946 64.313 843.795 63.9575C843.645 63.6021 843.433 63.2944 843.16 63.0347C842.9 62.7612 842.592 62.5493 842.237 62.3989C841.881 62.2485 841.499 62.1733 841.088 62.1733H832.27V68.0386ZM832.27 56.2876H841.088C841.499 56.2876 841.881 56.2124 842.237 56.062C842.592 55.9116 842.9 55.7065 843.16 55.4468C843.433 55.1733 843.645 54.8589 843.795 54.5034C843.946 54.1343 844.021 53.7446 844.021 53.3345C844.021 52.9243 843.946 52.5415 843.795 52.186C843.645 51.8306 843.433 51.5229 843.16 51.2632C842.9 50.9897 842.592 50.7778 842.237 50.6274C841.881 50.4771 841.499 50.4019 841.088 50.4019H832.27V56.2876Z" fill="white" fill-opacity="0.2"/>
<path d="M1264.04 415.171C1264.04 413.53 1263.72 411.948 1263.07 410.425C1262.46 408.872 1261.61 407.51 1260.52 406.338C1259.44 405.137 1258.16 404.185 1256.7 403.481C1255.26 402.749 1253.73 402.383 1252.08 402.383C1250.44 402.383 1248.89 402.661 1247.43 403.218C1245.99 403.774 1244.73 404.595 1243.65 405.679C1242.59 406.763 1241.76 408.11 1241.14 409.722C1240.53 411.304 1240.22 413.12 1240.22 415.171C1240.22 417.134 1240.53 418.906 1241.14 420.488C1241.76 422.041 1242.59 423.374 1243.65 424.487C1244.73 425.601 1245.99 426.465 1247.43 427.08C1248.89 427.666 1250.44 427.959 1252.08 427.959C1253.73 427.959 1255.26 427.607 1256.7 426.904C1258.16 426.172 1259.44 425.22 1260.52 424.048C1261.61 422.847 1262.46 421.484 1263.07 419.961C1263.72 418.408 1264.04 416.812 1264.04 415.171ZM1276.12 433.188C1276.12 436.499 1275.49 439.604 1274.23 442.505C1272.97 445.405 1271.24 447.939 1269.05 450.107C1266.88 452.275 1264.33 453.989 1261.4 455.249C1258.5 456.509 1255.4 457.139 1252.08 457.139L1246.06 457.051V445.054L1252 445.142C1253.87 445.142 1255.47 444.893 1256.79 444.395C1258.11 443.926 1259.22 443.267 1260.13 442.417C1261.03 441.597 1261.75 440.645 1262.28 439.561C1262.84 438.477 1263.28 437.334 1263.6 436.133C1263.13 436.895 1262.46 437.524 1261.58 438.022C1260.7 438.491 1259.72 438.872 1258.63 439.165C1257.58 439.487 1256.46 439.707 1255.29 439.824C1254.15 439.941 1253.08 440 1252.08 440C1248.77 440 1245.65 439.429 1242.72 438.286C1239.82 437.144 1237.28 435.518 1235.08 433.408C1232.91 431.27 1231.2 428.662 1229.94 425.586C1228.68 422.51 1228.05 419.038 1228.05 415.171C1228.05 411.626 1228.68 408.33 1229.94 405.283C1231.2 402.236 1232.91 399.6 1235.08 397.373C1237.28 395.146 1239.82 393.403 1242.72 392.144C1245.65 390.884 1248.77 390.254 1252.08 390.254C1253.61 390.254 1255.12 390.444 1256.61 390.825C1258.11 391.206 1259.56 391.733 1260.96 392.407C1262.37 393.081 1263.7 393.872 1264.96 394.78C1266.25 395.688 1267.45 396.67 1268.56 397.725L1273.22 392.144H1276.12V433.188Z" fill="white" fill-opacity="0.1"/>
<path d="M346.275 86.2424H333.361L323.119 69.0608L312.84 86.2424H300L316.328 59.635L300 33.0276H312.84L323.119 50.2092L333.361 33.0276H346.275L329.947 59.635L346.275 86.2424Z" fill="white" fill-opacity="0.1"/>
<path d="M41.8594 236.537C41.8594 239.134 41.4017 241.472 40.4863 243.55C39.571 245.628 38.3464 247.385 36.8125 248.82C35.2786 250.255 33.4974 251.356 31.4688 252.123C29.4648 252.889 27.362 253.273 25.1602 253.273H3.71094V242.623H25.1602C25.8776 242.623 26.5951 242.511 27.3125 242.289C28.0547 242.066 28.7103 241.707 29.2793 241.212C29.873 240.718 30.3431 240.087 30.6895 239.32C31.0605 238.553 31.2461 237.625 31.2461 236.537C31.2461 235.547 31.0605 234.681 30.6895 233.939C30.3431 233.172 29.873 232.541 29.2793 232.046C28.7103 231.527 28.0547 231.143 27.3125 230.896C26.5951 230.624 25.8776 230.488 25.1602 230.488H3.71094L6.82812 200.058H39.6699V210.708H16.4023L15.4375 219.837H25.1602C27.362 219.837 29.4648 220.221 31.4688 220.988C33.4974 221.755 35.2786 222.868 36.8125 224.328C38.3464 225.763 39.571 227.519 40.4863 229.597C41.4017 231.651 41.8594 233.964 41.8594 236.537Z" fill="white" fill-opacity="0.1"/>
<path d="M862.473 257.818H856.874V241.433H854.147V235.854H856.874V234.809C856.874 233.455 857.127 232.184 857.633 230.994C858.153 229.805 858.857 228.772 859.745 227.897C860.648 227.009 861.694 226.312 862.883 225.806C864.073 225.286 865.344 225.026 866.698 225.026H870.902V230.604H866.698C866.096 230.604 865.535 230.714 865.016 230.933C864.51 231.138 864.066 231.432 863.683 231.814C863.314 232.184 863.02 232.628 862.801 233.147C862.582 233.653 862.473 234.207 862.473 234.809V235.854H869.343V241.433H862.473V257.818Z" fill="white" fill-opacity="0.2"/>
<path d="M1302.99 156.636L1294.62 134.672H1301L1305.8 148.372L1310.57 134.672H1316.97L1308.61 156.636H1302.99Z" fill="white" fill-opacity="0.2"/>
<path d="M1401.75 295.561C1400.39 295.561 1399.12 295.308 1397.93 294.802C1396.74 294.282 1395.7 293.578 1394.79 292.689C1393.91 291.787 1393.2 290.741 1392.68 289.552C1392.18 288.362 1391.92 287.091 1391.92 285.737V279.216H1389.2V273.638H1391.92V264.86H1397.5V273.638H1405.99V279.216H1397.5V285.737C1397.5 286.325 1397.61 286.879 1397.83 287.398C1398.05 287.904 1398.35 288.349 1398.73 288.731C1399.11 289.114 1399.57 289.422 1400.08 289.654C1400.6 289.873 1401.16 289.982 1401.75 289.982H1405.99V295.561H1401.75Z" fill="white" fill-opacity="0.2"/>
<path d="M1411.24 48.2422C1411.24 49.459 1411.01 50.6006 1410.54 51.667C1410.08 52.7334 1409.44 53.6699 1408.64 54.4766C1407.84 55.2695 1406.91 55.8984 1405.85 56.3633C1404.78 56.8281 1403.64 57.0605 1402.42 57.0605H1390.65V51.1748H1402.42C1402.83 51.1748 1403.22 51.0996 1403.57 50.9492C1403.93 50.7988 1404.23 50.5938 1404.49 50.334C1404.77 50.0605 1404.98 49.7461 1405.13 49.3906C1405.28 49.0352 1405.36 48.6523 1405.36 48.2422C1405.36 47.832 1405.28 47.4492 1405.13 47.0938C1404.98 46.7383 1404.77 46.4307 1404.49 46.1709C1404.23 45.8975 1403.93 45.6855 1403.57 45.5352C1403.22 45.3848 1402.83 45.3096 1402.42 45.3096H1394.4V39.4238H1402.42C1402.83 39.4238 1403.22 39.3486 1403.57 39.1982C1403.93 39.0479 1404.23 38.8428 1404.49 38.583C1404.77 38.3096 1404.98 37.9951 1405.13 37.6396C1405.28 37.2705 1405.36 36.8809 1405.36 36.4707C1405.36 36.0605 1405.28 35.6777 1405.13 35.3223C1404.98 34.9668 1404.77 34.6592 1404.49 34.3994C1404.23 34.126 1403.93 33.9141 1403.57 33.7637C1403.22 33.6133 1402.83 33.5381 1402.42 33.5381H1390.65V27.6523H1402.42C1403.64 27.6523 1404.78 27.8848 1405.85 28.3496C1406.91 28.8145 1407.84 29.4502 1408.64 30.2568C1409.44 31.0498 1410.08 31.9795 1410.54 33.0459C1411.01 34.1123 1411.24 35.2539 1411.24 36.4707C1411.24 37.5508 1411.04 38.6035 1410.65 39.6289C1410.25 40.6406 1409.69 41.5498 1408.96 42.3564C1409.69 43.1631 1410.25 44.0791 1410.65 45.1045C1411.04 46.1162 1411.24 47.1621 1411.24 48.2422Z" fill="white" fill-opacity="0.2"/>
<path d="M59.3334 32.5918C59.3334 33.918 59.0326 35.1416 58.431 36.2627C57.8295 37.3838 57.0023 38.3545 55.9496 39.1748C54.9105 39.9814 53.6937 40.6104 52.2992 41.0615C50.9047 41.5264 49.4144 41.7588 47.8285 41.7588C46.2426 41.7588 44.7523 41.5264 43.3578 41.0615C41.9633 40.6104 40.7396 39.9814 39.6869 39.1748C38.6478 38.3545 37.8275 37.3838 37.226 36.2627C36.6244 35.1416 36.3236 33.918 36.3236 32.5918C36.3236 31.8262 36.4261 31.0811 36.6312 30.3564C36.8363 29.6182 37.1302 28.9277 37.5131 28.2852C37.9095 27.6426 38.3812 27.0547 38.9281 26.5215C39.475 25.9746 40.0902 25.5098 40.7738 25.127C40.35 24.7578 39.9672 24.334 39.6254 23.8555C39.2972 23.377 39.0101 22.8711 38.764 22.3379C38.5316 21.8047 38.3539 21.2578 38.2308 20.6973C38.1078 20.123 38.0463 19.5557 38.0463 18.9951C38.0463 17.8467 38.2992 16.7734 38.8051 15.7754C39.3246 14.7637 40.0287 13.8818 40.9174 13.1299C41.806 12.3643 42.8451 11.7627 44.0345 11.3252C45.224 10.8877 46.4886 10.6689 47.8285 10.6689C49.182 10.6689 50.4535 10.8877 51.6429 11.3252C52.8324 11.7627 53.8715 12.3643 54.7601 13.1299C55.6625 13.8818 56.3666 14.7637 56.8724 15.7754C57.392 16.7734 57.6517 17.8467 57.6517 18.9951C57.6517 19.5557 57.5834 20.123 57.4467 20.6973C57.3236 21.2578 57.1459 21.8115 56.9135 22.3584C56.681 22.8916 56.3939 23.3975 56.0521 23.876C55.724 24.3545 55.348 24.7852 54.9242 25.168C55.5941 25.5508 56.2025 26.0088 56.7494 26.542C57.2963 27.0752 57.7611 27.6631 58.1439 28.3057C58.5267 28.9482 58.8207 29.6318 59.0258 30.3564C59.2308 31.0811 59.3334 31.8262 59.3334 32.5918ZM51.889 19.6309C51.889 19.1523 51.7797 18.708 51.5609 18.2979C51.3558 17.874 51.0687 17.5049 50.6996 17.1904C50.3441 16.876 49.9203 16.6299 49.4281 16.4521C48.9359 16.2744 48.4164 16.1855 47.8695 16.1855C47.309 16.1855 46.7826 16.2744 46.2904 16.4521C45.7982 16.6299 45.3676 16.876 44.9984 17.1904C44.6429 17.5049 44.3558 17.874 44.1371 18.2979C43.932 18.708 43.8295 19.1523 43.8295 19.6309C43.8295 20.1094 43.932 20.5537 44.1371 20.9639C44.3558 21.374 44.6429 21.7295 44.9984 22.0303C45.3676 22.3311 45.7982 22.5703 46.2904 22.748C46.7826 22.9258 47.309 23.0146 47.8695 23.0146C48.4164 23.0146 48.9359 22.9258 49.4281 22.748C49.9203 22.5703 50.3441 22.3311 50.6996 22.0303C51.0687 21.7295 51.3558 21.374 51.5609 20.9639C51.7797 20.5537 51.889 20.1094 51.889 19.6309ZM53.4886 32.4277C53.4886 31.7715 53.3383 31.1631 53.0375 30.6025C52.7504 30.0283 52.347 29.5293 51.8275 29.1055C51.3217 28.6816 50.7201 28.3467 50.0228 28.1006C49.3392 27.8545 48.6078 27.7314 47.8285 27.7314C47.0492 27.7314 46.3177 27.8545 45.6342 28.1006C44.9506 28.3467 44.349 28.6816 43.8295 29.1055C43.3236 29.5293 42.9203 30.0283 42.6195 30.6025C42.3324 31.1631 42.1888 31.7715 42.1888 32.4277C42.1888 33.084 42.3324 33.6855 42.6195 34.2324C42.9203 34.7793 43.3236 35.251 43.8295 35.6475C44.349 36.0439 44.9506 36.3584 45.6342 36.5908C46.3177 36.8096 47.0492 36.9189 47.8285 36.9189C48.6078 36.9189 49.3392 36.8096 50.0228 36.5908C50.7201 36.3584 51.3217 36.0439 51.8275 35.6475C52.347 35.251 52.7504 34.7793 53.0375 34.2324C53.3383 33.6855 53.4886 33.084 53.4886 32.4277Z" fill="white" fill-opacity="0.2"/>
<path d="M93.5645 439.054C93.5645 435.786 93.0176 433.359 91.9238 431.773C90.8438 430.188 89.333 429.395 87.3916 429.395C85.4639 429.395 83.9668 430.181 82.9004 431.753C81.834 433.325 81.3008 435.759 81.3008 439.054C81.3008 442.321 81.834 444.748 82.9004 446.334C83.9668 447.92 85.4639 448.713 87.3916 448.713C88.3623 448.713 89.2305 448.521 89.9961 448.139C90.7617 447.742 91.4043 447.147 91.9238 446.354C92.457 445.562 92.8604 444.563 93.1338 443.36C93.4209 442.144 93.5645 440.708 93.5645 439.054ZM99.1631 439.054C99.1631 441.843 98.8555 444.201 98.2402 446.129C97.625 448.057 96.7842 449.615 95.7178 450.805C94.6514 451.994 93.4004 452.855 91.9648 453.389C90.543 453.908 89.0186 454.168 87.3916 454.168C85.7646 454.168 84.2334 453.901 82.7979 453.368C81.376 452.821 80.1318 451.953 79.0654 450.764C78.0127 449.561 77.1787 448.002 76.5635 446.088C75.9482 444.16 75.6406 441.815 75.6406 439.054C75.6406 436.265 75.9482 433.913 76.5635 431.999C77.1787 430.071 78.0127 428.513 79.0654 427.323C80.1318 426.134 81.376 425.272 82.7979 424.739C84.2334 424.206 85.7646 423.939 87.3916 423.939C89.0186 423.939 90.543 424.213 91.9648 424.76C93.4004 425.293 94.6514 426.161 95.7178 427.364C96.7842 428.567 97.625 430.126 98.2402 432.04C98.8555 433.954 99.1631 436.292 99.1631 439.054Z" fill="white" fill-opacity="0.2"/>
</svg>
