<svg width="285" height="200" viewBox="0 0 285 200" fill="none" xmlns="http://www.w3.org/2000/svg">
<path d="M184.5 79L205.5 63.5L238.5 34L234.5 47L231.5 56.5H236L246.5 50L263 36L276 17.5L284 0.5L282 17.5L267 47L253 67L239.5 82.5L220.5 97.5L211.5 101L231.5 83.5L249.5 65L257.5 55.5L261 48.5L253 56.5L242.5 67L234.5 72H229H227L218 80L207 77.5L194.5 76L184.5 79Z" fill="white"/>
<path d="M267 47L282 17.5L284 0.5L276 17.5L263 36L246.5 50L236 56.5H231.5L234.5 47L238.5 34L205.5 63.5L184.5 79L194.5 76L207 77.5L218 80L227 72H229M267 47L261 48.5M267 47L253 67L239.5 82.5L220.5 97.5L211.5 101L231.5 83.5L249.5 65L257.5 55.5L261 48.5M261 48.5L253 56.5L242.5 67L234.5 72H229M229 72L206.5 69" stroke="white"/>
<path d="M189.5 81.5L196.5 76.5L204.5 77.5L190.5 89.5L163.5 106.5L152 111.5L142.5 112.5L145.5 111L152.5 108L155.5 105.5L152.5 103L139.5 100H117H104L119.5 96L144 94.5L159 93.5L172 89.5L189.5 81.5Z" fill="white"/>
<path d="M199.5 89.5L209 78L218 80.5L210 90.5L202 101L190.5 109L170 118L145.5 126L131 130.5L123.5 134.5L121.5 140.5L125 154.5L128.5 164.5V172L117 175.5L104 178L96 179L92.5 176.5L98 172L103.5 165.5L107.5 158.5L108.5 152.5L109 146.5L107.5 140.5L105 136V123.5L104.5 115L103.5 111H99C97.8 111 91.1667 112 88 112.5L90.5 106.5L106 108L117 110L123.5 114L113.5 117.5L114.5 120L126.5 119.5L136.5 117.5L152 115.5L171.5 109L188.5 99L199.5 89.5Z" fill="white"/>
<path d="M189.5 81.5L196.5 76.5L204.5 77.5L190.5 89.5L163.5 106.5L152 111.5L142.5 112.5L145.5 111L152.5 108L155.5 105.5L152.5 103L139.5 100H117H104L119.5 96L144 94.5L159 93.5L172 89.5L189.5 81.5Z" stroke="white"/>
<path d="M199.5 89.5L209 78L218 80.5L210 90.5L202 101L190.5 109L170 118L145.5 126L131 130.5L123.5 134.5L121.5 140.5L125 154.5L128.5 164.5V172L117 175.5L104 178L96 179L92.5 176.5L98 172L103.5 165.5L107.5 158.5L108.5 152.5L109 146.5L107.5 140.5L105 136V123.5L104.5 115L103.5 111H99C97.8 111 91.1667 112 88 112.5L90.5 106.5L106 108L117 110L123.5 114L113.5 117.5L114.5 120L126.5 119.5L136.5 117.5L152 115.5L171.5 109L188.5 99L199.5 89.5Z" stroke="white"/>
<path d="M48.5 123L55 120.5L57 121L56.5 122L52.5 124.5L51 127.5L55 126L60 124.5C61.8333 124.333 65.6 124 66 124H72L80.5 126L88 129.5L93.5 134L94.5 137.5L89.5 138L88 136.5L84.5 133.5L79.5 130.5L74.5 129.5L68.5 128.5L64 127H59L51.5 129.5L47 131.5L39 139.5L36.5 147L29.5 147.5V144.5L33 137.5L37.5 131.5L43.5 126L48.5 123Z" fill="white"/>
<path d="M47 139C47 138.6 50.6667 136.167 52.5 135L56 132.5L65.5 130.5L73.5 131.5C76 132.333 81.1 134 81.5 134C81.9 134 85 137.333 86.5 139C84.5 139.333 80.4 140 80 140C79.6 140 70.5 141.667 66 142.5C61.1667 143.167 51.4 144.5 51 144.5H43.5C44.6667 142.833 47 139.4 47 139Z" fill="white"/>
<path d="M37.5 174.5L30.5 166V165H39L40 166L45 171.5L51.5 175.5L58 177C61.6667 177 69 176.9 69 176.5C69 176.1 71 175 72 174.5L75 172L80 170L84.5 166L88 162.5L90 159L91.5 156H98L95.5 161.5L91.5 167L86.5 171.5C84.5 172.667 80.4 175.1 80 175.5C79.6 175.9 75.1667 177 73 177.5L68.5 178H62.5L57.5 178.5L62.5 180.5L66 183.5C65 183.667 62.7 183.9 61.5 183.5C60.3 183.1 55.6667 183 53.5 183L44 179L37.5 174.5Z" fill="white"/>
<path d="M52.5 168.5C50.6667 166.833 46.8 163.5 46 163.5L51.5 162.5L60 161.5L72 159L80.5 158L88 157.5L85.5 161.5L81.5 165L78 168.5L72 171C69.8333 171.167 65.2 171.5 64 171.5C62.8 171.5 59.8333 171.167 58.5 171L52.5 168.5Z" fill="white"/>
<path d="M30.5 154.5V154V153L32 152.5L38 152L36.5 153.5L41 156.5L42.5 153L41 152.5V151H43.5H47L46 152.5L45 153L41.5 160.5H37L33.5 156.5L32.5 154.5H30.5Z" fill="white"/>
<path d="M48 153.5C48 152.3 48.3333 151.667 48.5 151.5C49.2738 150.984 50.7062 150.129 51.5 149.954L52.5 149.5L57 150L59 151V154C58.8333 154.667 58.3 156.1 57.5 156.5C56.5 157 55.5 157.5 53.5 157.5C51.9 157.5 49.8333 156.833 49 156.5C48.6667 156 48 154.7 48 153.5Z" fill="white"/>
<path d="M63 150H60.5V148L68.5 147.5L69 149L67 149.5L67.5 154H71.5V152H73.5V155L70.5 155.5L66 156L61.5 156.5V155L63 154.5V150Z" fill="white"/>
<path d="M74 148.5H71.5V146.5H80.5L81 147.5H78.5L82 151L83.5 148.5L84.5 147L83 146.5V145.5H87.5V146.5L86.5 147V147.5L85.5 149.954L83 153.5H78.5C78.1 153.5 75.3333 150.167 74 148.5Z" fill="white"/>
<path d="M89.5 150L89 146C89.7255 145.565 91.3102 144.75 92.5 144.547L98 143.5L101 145L101.5 148.5L99.5 150.5L94.5 151.5L89.5 150Z" fill="white"/>
<path d="M30.5 154V154.5M30.5 154.5H32.5L33.5 156.5L37 160.5H41.5L45 153L46 152.5L47 151H43.5H41V152.5L42.5 153L41 156.5L36.5 153.5L38 152L32 152.5L30.5 153V154.5ZM52 150C51.9095 149.91 51.732 149.903 51.5 149.954M51.5 149.954C50.7062 150.129 49.2738 150.984 48.5 151.5C48.3333 151.667 48 152.3 48 153.5C48 154.7 48.6667 156 49 156.5C49.8333 156.833 51.9 157.5 53.5 157.5C55.5 157.5 56.5 157 57.5 156.5C58.3 156.1 58.8333 154.667 59 154V151L57 150L52.5 149.5L51.5 149.954ZM93 144.5C92.8448 144.5 92.6768 144.517 92.5 144.547M92.5 144.547C91.3102 144.75 89.7255 145.565 89 146L89.5 150L94.5 151.5L99.5 150.5L101.5 148.5L101 145L98 143.5L92.5 144.547ZM55 120.5L48.5 123L43.5 126L37.5 131.5L33 137.5L29.5 144.5V147.5L36.5 147L39 139.5L47 131.5L51.5 129.5L59 127H64L68.5 128.5L74.5 129.5L79.5 130.5L84.5 133.5L88 136.5L89.5 138L94.5 137.5L93.5 134L88 129.5L80.5 126L72 124C70.1667 124 66.4 124 66 124C65.6 124 61.8333 124.333 60 124.5L55 126L51 127.5L52.5 124.5L56.5 122L57 121L55 120.5ZM52.5 135C50.6667 136.167 47 138.6 47 139C47 139.4 44.6667 142.833 43.5 144.5C45.8333 144.5 50.6 144.5 51 144.5C51.4 144.5 61.1667 143.167 66 142.5C70.5 141.667 79.6 140 80 140C80.4 140 84.5 139.333 86.5 139C85 137.333 81.9 134 81.5 134C81.1 134 76 132.333 73.5 131.5L65.5 130.5L56 132.5L52.5 135ZM30.5 166L37.5 174.5L44 179L53.5 183C55.6667 183 60.3 183.1 61.5 183.5C62.7 183.9 65 183.667 66 183.5L62.5 180.5L57.5 178.5L62.5 178H68.5L73 177.5C75.1667 177 79.6 175.9 80 175.5C80.4 175.1 84.5 172.667 86.5 171.5L91.5 167L95.5 161.5L98 156H91.5L90 159L88 162.5L84.5 166L80 170L75 172L72 174.5C71 175 69 176.1 69 176.5C69 176.9 61.6667 177 58 177L51.5 175.5L45 171.5L40 166L39 165H30.5V166ZM46 163.5C46.8 163.5 50.6667 166.833 52.5 168.5L58.5 171C59.8333 171.167 62.8 171.5 64 171.5C65.2 171.5 69.8333 171.167 72 171L78 168.5L81.5 165L85.5 161.5L88 157.5L80.5 158L72 159L60 161.5L51.5 162.5L46 163.5ZM51.5 152L50.5 154C50.6667 154.333 51.1 155.1 51.5 155.5C51.9 155.9 53.6667 156 54.5 156L57 155V152.5L55.5 151.5H52.5L51.5 152ZM60.5 150H63V154.5L61.5 155V156.5L66 156L70.5 155.5L73.5 155V152H71.5V154H67.5L67 149.5L69 149L68.5 147.5L60.5 148V150ZM71.5 148.5H74C75.3333 150.167 78.1 153.5 78.5 153.5C78.9 153.5 81.6667 153.5 83 153.5L85.5 149.954L86.5 147.5V147L87.5 146.5V145.5H83V146.5L84.5 147L83.5 148.5L82 151L78.5 147.5H81L80.5 146.5H71.5V148.5ZM92 147L93.5 149L96 149.5L97.5 148V146L95.5 145.5L92.5 146L92 147Z" stroke="white"/>
<path d="M78 106.5H90L87.5 112.5L83.5 113.5L87.5 115L93.5 117.5C97.5 120.167 105.7 125.7 106.5 126.5C107.3 127.3 106.167 133.5 105.5 136.5L97.5 126.5L99 124L94.5 121L90 118.5L87 122L83.5 125L83 124.5L87 120L80.5 117.5L71 116.5H63.5L53 118.5L45 122C43.1667 123.5 39.3 126.6 38.5 127C37.7 127.4 32.5 133.833 30 137L25.5 145L24 153L25.5 162.5L34 174.5L44 183.5L59.5 186L71 185.5L77.5 183.5L88.5 179.5L92.5 176.5L96 179.5V180.5H104.5C106 180.5 109 180 110 180.5C110.8 180.9 111 182 111 182.5C107.167 183.167 99.3 184.5 98.5 184.5C97.7 184.5 90.5 185.167 87 185.5L77 188C76.1667 188.333 74.4 189.1 74 189.5C73.6 189.9 74.8333 191 75.5 191.5L79 196H70.5C69.5 196 65.5 193 65 192.5C64.6 192.1 62.1667 190 61 189H54C52.3333 189.5 48.8 190.5 48 190.5C47.2 190.5 46 192.833 45.5 194L48 199C46.6667 199 43.3 198.8 40.5 198C37.7 197.2 34.3333 191.667 33 189L25.5 188C25 187.333 23.5 184.1 21.5 176.5C19.5 168.9 8 160.667 2.5 157.5H8.5L13.5 158.5C14.6667 159 17.1 160 17.5 160C17.9 160 18.3333 159 18.5 158.5L13.5 146L14.5 139L21.5 125.5L27.5 118.5V121V131C30.1667 128 36 121.3 38 118.5C40.5 115 49 109.5 50 108.5C51 107.5 56.5 104.5 57.5 104.5C58.3 104.5 63.5 103.167 66 102.5L75.5 101.5L78.5 102.5L78 106.5Z" fill="white"/>
<path d="M135.5 174L128 142L129 139.5L169.5 122L170.5 127.5L143 139.5L144.5 148L172.5 136.5L173.5 142L145.5 153.5L148.5 168.5L135.5 174Z" fill="white"/>
<path d="M182.5 155L175 121L187.5 115L191 128.5L210 120L207 106.5L221 100C223.667 111.667 229 135.1 229 135.5C229 135.9 219.667 140 215 142L211 125.5L192.5 133.5L196 149L182.5 155Z" fill="white"/>
<path d="M78 106.5H90L87.5 112.5L83.5 113.5L87.5 115L93.5 117.5C97.5 120.167 105.7 125.7 106.5 126.5C107.3 127.3 106.167 133.5 105.5 136.5L97.5 126.5L99 124L94.5 121L90 118.5L87 122L83.5 125L83 124.5L87 120L80.5 117.5L71 116.5H63.5L53 118.5L45 122C43.1667 123.5 39.3 126.6 38.5 127C37.7 127.4 32.5 133.833 30 137L25.5 145L24 153L25.5 162.5L34 174.5L44 183.5L59.5 186L71 185.5L77.5 183.5L88.5 179.5L92.5 176.5L96 179.5V180.5H104.5C106 180.5 109 180 110 180.5C110.8 180.9 111 182 111 182.5C107.167 183.167 99.3 184.5 98.5 184.5C97.7 184.5 90.5 185.167 87 185.5L77 188C76.1667 188.333 74.4 189.1 74 189.5C73.6 189.9 74.8333 191 75.5 191.5L79 196H70.5C69.5 196 65.5 193 65 192.5C64.6 192.1 62.1667 190 61 189H54C52.3333 189.5 48.8 190.5 48 190.5C47.2 190.5 46 192.833 45.5 194L48 199C46.6667 199 43.3 198.8 40.5 198C37.7 197.2 34.3333 191.667 33 189L25.5 188C25 187.333 23.5 184.1 21.5 176.5C19.5 168.9 8 160.667 2.5 157.5H8.5L13.5 158.5C14.6667 159 17.1 160 17.5 160C17.9 160 18.3333 159 18.5 158.5L13.5 146L14.5 139L21.5 125.5L27.5 118.5V121V131C30.1667 128 36 121.3 38 118.5C40.5 115 49 109.5 50 108.5C51 107.5 56.5 104.5 57.5 104.5C58.3 104.5 63.5 103.167 66 102.5L75.5 101.5L78.5 102.5L78 106.5Z" stroke="white"/>
<path d="M135.5 174L128 142L129 139.5L169.5 122L170.5 127.5L143 139.5L144.5 148L172.5 136.5L173.5 142L145.5 153.5L148.5 168.5L135.5 174Z" stroke="white"/>
<path d="M182.5 155L175 121L187.5 115L191 128.5L210 120L207 106.5L221 100C223.667 111.667 229 135.1 229 135.5C229 135.9 219.667 140 215 142L211 125.5L192.5 133.5L196 149L182.5 155Z" stroke="white"/>
</svg>
