<svg width="377" height="108" viewBox="0 0 377 108" fill="none" xmlns="http://www.w3.org/2000/svg">
<path d="M303.5 22.9999H333C333.832 27.4196 333.046 28.6077 329 27.9999L319 32.4999L300 28.9999C298.752 24.6616 299.251 23.061 303.5 22.9999Z" fill="#292929"/>
<path d="M318 32.9999L357 14.9999H359V16.9999L322 33.4999L318 32.9999Z" fill="#D9D9D9"/>
<rect x="359" y="17.9999" width="3" height="2" fill="#292929"/>
<rect x="361" y="22.9999" width="3" height="2" fill="#292929"/>
<rect x="362" y="27.9999" width="3" height="2" fill="#292929"/>
<rect x="363" y="32.9999" width="3" height="2" fill="#292929"/>
<path d="M343 23.9999L358.5 16.9999C363.047 22.4979 364.899 29.1605 367 45.4999C349.808 40.5882 339.165 37.5901 322 33.4999L343 23.9999Z" fill="#292929"/>
<path d="M330 35.4999C334.807 33.6285 338.099 32.6441 345 30.9999C345.191 34.1602 345.184 35.9114 345 38.9999C344.851 39.2864 343.722 39.0391 340 37.9999L334 36.4999L330 35.4999Z" fill="#808080"/>
<path d="M302 24C302 22.8954 302.895 22 304 22V22C305.105 22 306 22.8954 306 24V31H302V24Z" fill="#606060"/>
<path d="M307 24C307 22.8954 307.895 22 309 22V22C310.105 22 311 22.8954 311 24V32H307V24Z" fill="#606060"/>
<path d="M317 3C317 1.34315 318.343 0 320 0H324C325.657 0 327 1.34315 327 3V18C328.552 19.5162 328.91 20.6562 329 23H315C315.109 21.0925 315.362 20.0102 317 18V3Z" fill="#E6E8E7"/>
<path d="M317 16.4999C320.952 16.4838 323.146 16.4589 327 16.4999M318 16.4999C321.149 15.6877 322.901 15.7243 326 16.4999" stroke="#818181"/>
<circle cx="322" cy="5" r="1" fill="#B81C2A"/>
<path d="M21 60.4999C64.5195 54.3801 88.6753 51.9026 131.5 48.4999C158.658 33.6343 172.356 27.9247 194 22.4999C217.428 21.6242 230.567 21.5008 254 21.9999C295.131 26.1823 318.053 33.2531 359 42.9999C362.071 58.412 362.819 65.9624 362.5 80.9999H370C369.758 82.278 369.544 82.9367 369 83.9999C363.25 84.4018 360.749 84.9635 357.5 86.4999C336.645 95.8476 316 102.5 291 104L79 101C45.1573 99.9729 32.3571 97.8093 21 90.9999V60.4999Z" fill="#D9D9D9"/>
<path d="M277.5 74.4999C277.5 74.4999 288.5 61.9998 300.5 63.9999C314.5 63.9999 317.849 67.5767 326 75.4999C330 82.4999 333.803 86.739 334.5 95.5C323.194 99.2684 313.548 101.347 292.5 104L267 104C265.363 94.0532 268.087 86.7625 277.5 74.4999Z" fill="#818181"/>
<path d="M283.75 89.9999H316.75C317.75 90.4999 317.75 91.4999 316.75 91.9999H283.75C282.75 91.4999 282.75 90.4999 283.75 89.9999Z" fill="#DBDBDB"/>
<path d="M297 89.9999C299.183 81.2669 290.5 65.9999 290.5 65.9999M303 89.9999C303 89.9999 309.5 78.9999 305 75.9999C300.5 72.9999 304.484 69.155 303 64.4999" stroke="#DBDBDB" stroke-width="2" stroke-linecap="square"/>
<g filter="url(#filter0_d_89_56)">
<path d="M267 93.8033C271.546 79.7621 278.703 70.9314 290 65.8032C301.372 63.0932 307.12 63.3158 316 67.3032C320.058 68.8896 328.109 74.9899 333 91.8032" stroke="#292929" stroke-width="3" stroke-linecap="round"/>
</g>
<path d="M55 78.9999C63.1014 71.6661 68.0253 69.0609 77.5 68.9999C88.1159 69.9952 93.5 71.9999 101.5 80.9999C106.5 87.9999 107 92.4999 108.5 101.5C66.4118 100.802 51.8402 100.337 46 98.4999C47.8299 90.7892 49.7814 86.5186 55 78.9999Z" fill="#818181"/>
<path d="M61.75 94.9999H94.75C95.75 95.4999 95.75 96.4999 94.75 96.9999H61.75C60.75 96.4999 60.75 95.4999 61.75 94.9999Z" fill="#DBDBDB"/>
<path d="M75.5219 94.9999C72.2374 85.5887 74.629 72.6544 79.5219 69.9999M81.5219 94.9999C77.8784 82.5935 82.3878 71.0816 87.5219 70.9999" stroke="#DBDBDB" stroke-width="2" stroke-linecap="square"/>
<g filter="url(#filter1_d_89_56)">
<path d="M46.5 97.9999C49.501 87.0549 53.4315 81.0259 57.5 76.9998C68.0645 66.8022 86.1497 67.4433 96.5 76.4999C100.5 79.9999 106.5 85.4999 107 97.9999" stroke="#292929" stroke-width="3" stroke-linecap="round"/>
</g>
<path d="M14.5 61.4999C24.5 59.9999 16.9563 61.0603 21 60.4999V90.9999C28.6376 92.9855 34.3285 93.2028 47 97.4999C47.5657 99.6665 47.0939 101.871 44.5 102C19.9365 101.896 14.7019 101.457 12 99.9999V97.9999C13 97.4999 13.7576 96.9612 15 96.9999V91.9999C12.4325 91.254 11.1476 90.7545 9.5 89.4999L9 73.9999C10.5257 68.1142 11.7184 65.3587 14.5 61.4999Z" fill="#292929"/>
<path d="M21 73.9999H9C10.5357 68.1088 11.7308 65.3568 14.5 61.4999L24 59.9999L21 73.9999Z" fill="#606060"/>
<path d="M27 74H40C41.1046 74 42 74.8954 42 76V87C42 88.1046 41.1046 89 40 89H27V74Z" stroke="#282828" stroke-width="2"/>
<rect x="19" y="74" width="3" height="14" fill="#282828"/>
<path d="M2.49072 75H19V88H2.49072C1.87126 82.6145 1.8025 79.7348 2.49072 75Z" fill="#606060"/>
<path d="M22 75H41V88H22V75Z" fill="#606060"/>
<path d="M3 76C3 74.8954 3.89543 74 5 74H26V89H5C3.89543 89 3 88.1046 3 87V76Z" stroke="#282828" stroke-width="2"/>
<g filter="url(#filter2_d_89_56)">
<path d="M2 75.5C1.72386 75.5 1.5 75.7239 1.5 76C1.5 76.2761 1.72386 76.5 2 76.5L2 75.5ZM19 75.5H2L2 76.5H19V75.5Z" fill="#D9D9D9"/>
</g>
<g filter="url(#filter3_d_89_56)">
<path d="M2 86.5C1.72386 86.5 1.5 86.7239 1.5 87C1.5 87.2761 1.72386 87.5 2 87.5L2 86.5ZM2 87.5H19V86.5H2L2 87.5Z" fill="#D9D9D9"/>
</g>
<rect x="33" y="72" width="7" height="1" fill="#606060"/>
<path d="M38 78C38 76.3431 39.3431 75 41 75V75V88V88C39.3431 88 38 86.6569 38 85V78Z" fill="#D9D9D9"/>
<rect x="22" y="76" width="3" height="11" rx="1.5" fill="#D9D9D9"/>
<path d="M331.5 91.9999C337.623 87.1313 347.656 85.3475 369 83.9999C367.854 86.7192 352.371 89.4122 352 89.4999C350.22 90.0943 337.722 94.7607 331.5 98.4999V91.9999Z" fill="#292929"/>
<path d="M106.029 94.9999L268.499 93.9999L269 108H264.988C243.259 106.297 226.938 105.56 190.273 105H109.038C106.218 100.416 104.794 99.8605 106.029 94.9999Z" fill="#292929"/>
<path d="M42 73.9999H54L53.5 75.4999L52 75.9999H42V73.9999Z" fill="#292929"/>
<path d="M192.5 71.4999L276 69.9999L274 72.9999L171 73.9999L101 74.9999V72.9999L192.5 71.4999Z" fill="#292929"/>
<path d="M328 68.9999H363V71.9999H356H345H329.029C328.126 71.0308 327.916 70.3459 328 68.9999Z" fill="#292929"/>
<path d="M362 68.9999H377V74.9999C375.726 77.5488 374.29 78.8383 371 80.9999H362V68.9999Z" fill="#292929"/>
<path d="M359 42.9999L367 45.4999C370.581 54.6678 370.662 59.8042 371 68.9999H362C361.365 56.4027 360.616 50.7841 359 42.9999Z" fill="#606060"/>
<rect x="165" y="97" width="67" height="6" rx="2" fill="#E6E8E7"/>
<rect x="169.5" y="96.5" width="3" height="7" rx="0.5" stroke="#A5A5A5"/>
<rect x="224.5" y="96.5" width="3" height="7" rx="0.5" stroke="#A5A5A5"/>
<path d="M266.5 27.5C279.141 26.5426 296.662 30.0674 345 41.9999C345.563 44.6852 342.993 45.7352 334.5 46.9999H283C270.711 43.5102 267.035 38.8972 266.5 27.5Z" fill="#292929"/>
<path d="M331.5 39.4999L335.5 45.9999" stroke="#7E7E7E" stroke-linecap="square"/>
<path d="M327.431 38.2464L327.177 37.8155L326.316 38.3225L326.569 38.7534L327.431 38.2464ZM326.569 38.7534L331.569 47.2535L332.431 46.7465L327.431 38.2464L326.569 38.7534Z" fill="#7E7E7E"/>
<path d="M335.5 39.9999L339.5 45.9999" stroke="#7E7E7E"/>
<path d="M339.5 40.9999L342.5 44.9999" stroke="#7E7E7E"/>
<path d="M284.5 44.4999H278" stroke="#838383"/>
<path d="M286 46.9999V45.4999V43.9999" stroke="#838383"/>
<path d="M269.5 38.4999H284.5V40.4999H271" stroke="#838383"/>
<path d="M274 42.4988L284.5 42.4988" stroke="#838383"/>
<path d="M285 39.9999V46.9999" stroke="#838383"/>
<path d="M245 58.9999C245 59.5522 244.552 59.9999 244 59.9999C243.448 59.9999 243 59.5522 243 58.9999C243 58.4477 243.448 57.9999 244 57.9999C244.552 57.9999 245 58.4477 245 58.9999Z" fill="#D9D9D9" stroke="black"/>
<g filter="url(#filter4_d_89_56)">
<rect x="221.012" y="73.1642" width="12" height="2.7106" rx="1" transform="rotate(-0.509191 221.012 73.1642)" fill="#606060"/>
</g>
<path d="M131.5 48.4999C135.213 63.0644 139.874 78.693 149 99.5M254.5 21.9999V56.5C246.707 73.8544 237.61 80.8588 221.5 95.9999" stroke="#282828" stroke-width="2"/>
<path d="M178.38 32.7022C185.959 29.55 190.752 28.065 194.578 27.4993L242.963 27.0471C245.186 27.0263 247 28.8231 247 31.0469V43.0722C247 45.2586 245.244 47.04 243.058 47.0718L146 48.4853V47.6283C160.653 40.5741 170.859 35.8301 178.38 32.7022Z" fill="url(#paint0_linear_89_56)" stroke="#292929" stroke-width="2"/>
<path d="M156.808 45.4051C157.189 45.2335 157.694 45.3275 157.893 44.8736C158.123 44.3479 157.104 44.9616 157.072 44.9726C156.536 45.1589 155.75 45.1442 155.324 45.5701C155.278 45.6159 154.841 45.9598 155.027 45.8669" stroke="white" stroke-width="3" stroke-linecap="round"/>
<path d="M156.808 45.3392C156.657 45.4901 156.557 45.4711 156.346 45.4711" stroke="black" stroke-width="3" stroke-linecap="round"/>
<path d="M156.61 45.4711C157.267 45.0531 158.058 44.9152 158.773 44.6244C158.887 44.578 159.3 44.4428 159.044 44.3348C158.504 44.1074 157.85 44.2528 157.336 44.4961C157.236 44.5435 157.248 44.5896 157.182 44.6501C156.93 44.8809 156.447 44.9102 156.141 45.0606C155.776 45.24 155.502 45.5144 155.096 45.636C154.38 45.8511 153.646 46.4607 152.89 46.4607C152.697 46.4607 152.379 46.6505 152.186 46.7246C151.826 46.863 151.449 46.9143 151.09 47.0691C150.797 47.1956 150.394 47.4248 150.079 47.4503C149.936 47.4619 149.827 47.5155 149.701 47.5786C149.374 47.742 150.432 47.5245 150.79 47.4503C151.797 47.2414 152.906 47.3844 153.927 47.3844C154.454 47.3844 154.578 47.3185 154.994 47.0875C155.092 47.033 155.226 46.9033 155.1 46.7906C154.671 46.4056 153.577 46.5927 153.062 46.5927C152.317 46.5927 151.738 46.6119 151.072 46.9225C150.59 47.1472 150.208 47.1558 149.694 47.1901C149.606 47.1959 149.416 47.222 149.368 47.3184C149.343 47.3681 150.777 46.8906 150.87 46.8566" stroke="#292929" stroke-width="3" stroke-linecap="round"/>
<path d="M154.697 45.3391C154.77 44.9723 155.258 44.7332 155.525 44.5145C155.887 44.2184 155.819 45.781 155.819 46.0319C155.819 47.0444 156.938 46.5927 157.505 46.5927C158.043 46.5927 158.852 46.5367 159.066 45.9183C159.242 45.4106 159.117 44.6876 159.117 44.1516C159.117 43.8987 159.117 43.6458 159.117 43.3929C159.117 42.8054 159.117 43.6563 159.117 43.8327C159.117 44.3807 159.196 45.0193 159.051 45.5554C158.965 45.8742 158.996 46.3774 158.82 46.6586C158.721 46.817 158.721 47.1273 158.721 47.3184C158.721 47.4138 158.672 47.6746 158.736 47.6043C158.989 47.3288 159.106 46.7731 159.183 46.4167C159.425 45.2999 159.249 43.9736 159.249 42.8321" stroke="#292929" stroke-width="3" stroke-linecap="round"/>
<g filter="url(#filter5_d_89_56)">
<rect x="160" y="39.9999" width="9" height="11" rx="2" fill="#292929"/>
</g>
<path d="M197.5 47.4999C202.608 41.1127 205.959 38.5056 213.5 36.9999H230.5C235.989 38.8918 237.45 41.0196 237.5 46.4999" stroke="#282828"/>
<path d="M256 22.4999H255.5V22.9999V34.4999V34.5682L255.518 34.634C257.378 41.3156 259.817 45.9897 264.035 49.5806C268.235 53.157 274.152 55.6155 282.869 57.9825L282.933 57.9999H283H329.946C334.748 59.0458 338.136 60.2479 340.57 62.3171C342.988 64.3722 344.527 67.337 345.5 72.0508V93.4999V94.1042L346.094 93.9911L356.594 91.9911L357 91.9137V91.4999V71.9999V71.9433L356.987 71.8882C355.337 64.6924 353.21 59.6168 349.67 55.8254C346.129 52.033 341.225 49.5809 334.14 47.5198L334.071 47.4999H334H283.078C275.921 45.1994 271.549 42.7156 269.07 39.0618C266.585 35.3965 265.934 30.4503 266.499 23.0379L266.54 22.4999H266H256Z" fill="#C7C7C7" stroke="#7E7E7E"/>
<path d="M262 27.9999L262 35.9999" stroke="#7E7E7E"/>
<path d="M259 22.9999L259 28.9999" stroke="#7E7E7E"/>
<path d="M264 35.9999L264 49.4999" stroke="#7E7E7E"/>
<path d="M255.5 28.4999H266" stroke="#7E7E7E"/>
<path d="M256 35.9999H267.5" stroke="#7E7E7E"/>
<path d="M259 42.9999H273" stroke="#7E7E7E"/>
<path d="M261.694 46.9999L281.5 46.9999" stroke="#7E7E7E"/>
<path d="M274 43.4999L274 54.9999" stroke="#7E7E7E"/>
<path d="M282 46.9999L282 57.9999" stroke="#7E7E7E"/>
<path d="M290 47.9999L290 58.4999" stroke="#7E7E7E"/>
<path d="M298 46.9999L298 57.9999" stroke="#7E7E7E"/>
<path d="M305 46.9999L305 57.9999" stroke="#7E7E7E"/>
<path d="M310 46.9999L310 57.9999" stroke="#7E7E7E"/>
<path d="M317 46.9999L317 57.9999" stroke="#7E7E7E"/>
<path d="M326 46.9999L326 57.9999" stroke="#7E7E7E"/>
<path d="M335 47.9999L335 58.9999" stroke="#7E7E7E"/>
<path d="M290 51.9999H282" stroke="#7E7E7E"/>
<path d="M298 54.9999H290" stroke="#7E7E7E"/>
<path d="M305 51.9999H298" stroke="#7E7E7E"/>
<path d="M317 48.9999H305" stroke="#7E7E7E"/>
<path d="M317 53.9999H305" stroke="#7E7E7E"/>
<path d="M282 53.9999H274" stroke="#7E7E7E"/>
<path d="M335 50.9999H326" stroke="#7E7E7E"/>
<path d="M305 57.9999H296" stroke="#7E7E7E"/>
<path d="M326 51.9999H317" stroke="#7E7E7E"/>
<path d="M335 54.9999H326" stroke="#7E7E7E"/>
<path d="M343 57.9999H335" stroke="#7E7E7E"/>
<path d="M346 52.9999H335" stroke="#7E7E7E"/>
<path d="M343 64.9999L343 50.9999" stroke="#7E7E7E"/>
<path d="M349 88.9999L349 78.9999" stroke="#7E7E7E"/>
<path d="M354 84.9999L354 74.9999" stroke="#7E7E7E"/>
<path d="M354 84.9999L354 74.9999" stroke="#7E7E7E"/>
<path d="M352 92.9999L352 84.9999" stroke="#7E7E7E"/>
<path d="M351 74.9999L351 61.9999" stroke="#7E7E7E"/>
<path d="M346 66.9999L346 52.9999" stroke="#7E7E7E"/>
<path d="M344 66.9999H356" stroke="#7E7E7E"/>
<path d="M340 61.9999H354" stroke="#7E7E7E"/>
<path d="M345 74.9999H357" stroke="#7E7E7E"/>
<path d="M345 78.9999H357" stroke="#7E7E7E"/>
<path d="M345 84.9999H357" stroke="#7E7E7E"/>
<path d="M345 88.9999H357" stroke="#7E7E7E"/>
<rect x="250" y="18.9999" width="18" height="3" rx="1" fill="#292929"/>
<path d="M258 15.9999C258 15.4477 258.448 14.9999 259 14.9999C259.552 14.9999 260 15.4477 260 15.9999V18.9999H258V15.9999Z" fill="#292929"/>
<path d="M249.998 14L251.998 14.0001V16.0001H249.998C248.626 15.2656 248.709 14.8268 249.998 14Z" fill="#292929"/>
<path d="M252 14C257.494 13.8851 260.557 13.8922 266 14V16C260.533 16.1277 257.467 16.1312 252 16V14Z" fill="#D9D9D9"/>
<path d="M266 14.4999C266 14.2238 266.224 13.9999 266.5 13.9999C266.776 13.9999 267 14.2238 267 14.4999V15.4999C267 15.7761 266.776 15.9999 266.5 15.9999C266.224 15.9999 266 15.7761 266 15.4999V14.4999Z" fill="#292929"/>
<path d="M267.5 21C267.5 21 272.479 21.7568 272.979 23.2568C273.479 24.7568 275.027 23.8316 274.979 20.7568C274.931 17.6819 266.459 15.0048 266.5 15.5" stroke="#292929"/>
<path d="M267 19.9999C276.45 16.2059 275.32 15.5142 266.5 14.5" stroke="#292929"/>
<defs>
<filter id="filter0_d_89_56" x="260.5" y="59.4999" width="79.0008" height="42.8037" filterUnits="userSpaceOnUse" color-interpolation-filters="sRGB">
<feFlood flood-opacity="0" result="BackgroundImageFix"/>
<feColorMatrix in="SourceAlpha" type="matrix" values="0 0 0 0 0 0 0 0 0 0 0 0 0 0 0 0 0 0 127 0" result="hardAlpha"/>
<feOffset dy="2"/>
<feGaussianBlur stdDeviation="2.5"/>
<feComposite in2="hardAlpha" operator="out"/>
<feColorMatrix type="matrix" values="0 0 0 0 0 0 0 0 0 0 0 0 0 0 0 0 0 0 0.8 0"/>
<feBlend mode="normal" in2="BackgroundImageFix" result="effect1_dropShadow_89_56"/>
<feBlend mode="normal" in="SourceGraphic" in2="effect1_dropShadow_89_56" result="shape"/>
</filter>
<filter id="filter1_d_89_56" x="39.9996" y="65.0294" width="73.5004" height="41.4708" filterUnits="userSpaceOnUse" color-interpolation-filters="sRGB">
<feFlood flood-opacity="0" result="BackgroundImageFix"/>
<feColorMatrix in="SourceAlpha" type="matrix" values="0 0 0 0 0 0 0 0 0 0 0 0 0 0 0 0 0 0 127 0" result="hardAlpha"/>
<feOffset dy="2"/>
<feGaussianBlur stdDeviation="2.5"/>
<feComposite in2="hardAlpha" operator="out"/>
<feColorMatrix type="matrix" values="0 0 0 0 0 0 0 0 0 0 0 0 0 0 0 0 0 0 0.8 0"/>
<feBlend mode="normal" in2="BackgroundImageFix" result="effect1_dropShadow_89_56"/>
<feBlend mode="normal" in="SourceGraphic" in2="effect1_dropShadow_89_56" result="shape"/>
</filter>
<filter id="filter2_d_89_56" x="0.5" y="74.5" width="21.5" height="5" filterUnits="userSpaceOnUse" color-interpolation-filters="sRGB">
<feFlood flood-opacity="0" result="BackgroundImageFix"/>
<feColorMatrix in="SourceAlpha" type="matrix" values="0 0 0 0 0 0 0 0 0 0 0 0 0 0 0 0 0 0 127 0" result="hardAlpha"/>
<feOffset dx="1" dy="1"/>
<feGaussianBlur stdDeviation="1"/>
<feComposite in2="hardAlpha" operator="out"/>
<feColorMatrix type="matrix" values="0 0 0 0 0 0 0 0 0 0 0 0 0 0 0 0 0 0 0.5 0"/>
<feBlend mode="normal" in2="BackgroundImageFix" result="effect1_dropShadow_89_56"/>
<feBlend mode="normal" in="SourceGraphic" in2="effect1_dropShadow_89_56" result="shape"/>
</filter>
<filter id="filter3_d_89_56" x="0.5" y="83.5" width="21.5" height="5" filterUnits="userSpaceOnUse" color-interpolation-filters="sRGB">
<feFlood flood-opacity="0" result="BackgroundImageFix"/>
<feColorMatrix in="SourceAlpha" type="matrix" values="0 0 0 0 0 0 0 0 0 0 0 0 0 0 0 0 0 0 127 0" result="hardAlpha"/>
<feOffset dx="1" dy="-1"/>
<feGaussianBlur stdDeviation="1"/>
<feComposite in2="hardAlpha" operator="out"/>
<feColorMatrix type="matrix" values="0 0 0 0 0 0 0 0 0 0 0 0 0 0 0 0 0 0 0.5 0"/>
<feBlend mode="normal" in2="BackgroundImageFix" result="effect1_dropShadow_89_56"/>
<feBlend mode="normal" in="SourceGraphic" in2="effect1_dropShadow_89_56" result="shape"/>
</filter>
<filter id="filter4_d_89_56" x="220.021" y="70.0664" width="16.0059" height="6.79944" filterUnits="userSpaceOnUse" color-interpolation-filters="sRGB">
<feFlood flood-opacity="0" result="BackgroundImageFix"/>
<feColorMatrix in="SourceAlpha" type="matrix" values="0 0 0 0 0 0 0 0 0 0 0 0 0 0 0 0 0 0 127 0" result="hardAlpha"/>
<feOffset dx="1" dy="-1"/>
<feGaussianBlur stdDeviation="1"/>
<feComposite in2="hardAlpha" operator="out"/>
<feColorMatrix type="matrix" values="0 0 0 0 0 0 0 0 0 0 0 0 0 0 0 0 0 0 0.25 0"/>
<feBlend mode="normal" in2="BackgroundImageFix" result="effect1_dropShadow_89_56"/>
<feBlend mode="normal" in="SourceGraphic" in2="effect1_dropShadow_89_56" result="shape"/>
</filter>
<filter id="filter5_d_89_56" x="159" y="38.9999" width="13" height="15" filterUnits="userSpaceOnUse" color-interpolation-filters="sRGB">
<feFlood flood-opacity="0" result="BackgroundImageFix"/>
<feColorMatrix in="SourceAlpha" type="matrix" values="0 0 0 0 0 0 0 0 0 0 0 0 0 0 0 0 0 0 127 0" result="hardAlpha"/>
<feOffset dx="1" dy="1"/>
<feGaussianBlur stdDeviation="1"/>
<feComposite in2="hardAlpha" operator="out"/>
<feColorMatrix type="matrix" values="0 0 0 0 0 0 0 0 0 0 0 0 0 0 0 0 0 0 0.3 0"/>
<feBlend mode="normal" in2="BackgroundImageFix" result="effect1_dropShadow_89_56"/>
<feBlend mode="normal" in="SourceGraphic" in2="effect1_dropShadow_89_56" result="shape"/>
</filter>
<linearGradient id="paint0_linear_89_56" x1="145" y1="37.7499" x2="248" y2="37.7499" gradientUnits="userSpaceOnUse">
<stop stop-color="#00C2FF" stop-opacity="0.06"/>
<stop offset="1" stop-color="#007499" stop-opacity="0.72"/>
</linearGradient>
</defs>
</svg>
