<svg width="1920" height="376" viewBox="0 0 1920 376" fill="none" xmlns="http://www.w3.org/2000/svg">
<g clip-path="url(#clip0_505_822)">
<path d="M-15.9487 317.384C-7.70232 314.349 0.55045 311.421 8.66172 307.997C16.6415 304.606 24.2541 300.334 31.3731 295.253C44.9232 285.544 56.9098 273.325 71.6925 265.526C79.0618 261.432 87.1993 259.086 95.5383 258.651C95.6749 258.661 95.8054 258.715 95.9116 258.807C96.0177 258.899 96.0944 259.023 96.1307 259.163C96.167 259.302 96.1612 259.449 96.1142 259.585C96.0672 259.72 95.9812 259.836 95.8684 259.917L74.3145 270.77C67.131 274.406 60.1008 278.225 52.8323 281.801C51.8121 282.42 50.8226 280.668 51.9082 280.12C59.0803 276.464 66.3729 273.122 73.6185 269.504L95.2294 258.755C95.4234 259.108 95.4407 259.567 95.548 260C79.628 260.355 65.8068 269.951 53.9584 280.233C47.4257 285.909 41.0888 291.798 34.1924 297.002C27.322 302.1 19.9198 306.355 12.1281 309.687C3.13324 313.496 -6.06851 316.746 -15.4301 319.421C-16.6183 319.782 -17.0684 317.869 -15.9145 317.446L-15.9487 317.384Z" fill="black" fill-opacity="0.1"/>
<path d="M-14.3566 316.806C-0.841079 314.838 10.5917 305.085 24.6573 306.02C31.4621 306.756 38.1582 308.385 44.5897 310.869C51.3428 313.207 57.9639 315.955 64.4197 319.099C71.6687 322.709 78.7197 326.748 85.5387 331.197C85.6981 331.299 85.8226 331.451 85.8935 331.633C85.9644 331.814 85.9779 332.014 85.9322 332.204C85.8864 332.393 85.7837 332.562 85.6394 332.684C85.4951 332.806 85.3169 332.876 85.1313 332.883C77.9068 332.78 70.4862 332.797 64.0016 329.092C57.517 325.387 52.8333 318.819 46.3651 315.049C46.1904 314.946 46.0614 314.774 46.0063 314.571C45.9513 314.369 45.9748 314.152 46.0717 313.968C46.1685 313.785 46.3308 313.65 46.5228 313.593C46.7149 313.536 46.9209 313.562 47.0956 313.666C53.3009 317.291 58.2524 322.728 64.3431 326.478C70.4339 330.228 78.0203 330.941 85.2087 331.12C85.0691 331.675 84.9099 332.242 84.7818 332.818C78.844 329.047 72.6893 325.672 66.3543 322.713C59.9273 319.602 53.3386 316.881 46.6206 314.562C40.2202 312.137 33.6221 310.348 26.9127 309.218C20.2592 308.443 13.5359 309.342 7.29581 311.842C0.290137 314.373 -6.60554 317.723 -14.0905 318.194C-14.8192 318.248 -14.9973 316.973 -14.2718 316.865L-14.3566 316.806Z" fill="black" fill-opacity="0.1"/>
<path d="M16.9168 305.787C22.8656 307.517 28.929 308.762 35.0535 309.511C40.7376 310.054 46.4619 309.594 51.9911 308.152C62.253 305.5 71.791 300.437 82.027 297.69C87.5905 296.07 93.4099 295.626 99.1507 296.384L98.6877 298.159C83.8775 293.989 68.1659 295.644 54.4976 302.815C50.6159 304.839 46.9778 307.342 43.6593 310.271C43.5517 310.39 43.4207 310.484 43.2752 310.545C43.1297 310.607 42.9732 310.634 42.8163 310.625C42.6595 310.617 42.506 310.573 42.3665 310.496C42.2269 310.419 42.1046 310.312 42.0078 310.181C41.911 310.05 41.8421 309.899 41.8058 309.737C41.7695 309.576 41.7666 309.409 41.7974 309.247C41.8281 309.085 41.8918 308.932 41.984 308.799C42.0763 308.665 42.1948 308.555 42.3317 308.475C54.7889 298.391 70.2605 293.305 86.0017 294.119C90.4313 294.372 94.8265 295.11 99.1165 296.322C100.234 296.641 99.7414 298.267 98.6535 298.097C87.9134 296.501 77.5384 300.661 67.6881 304.585C57.8379 308.509 47.4241 312.36 36.4774 311.387C29.7287 310.571 23.0585 309.125 16.5459 307.064C15.7195 306.845 16.0562 305.507 16.8826 305.725L16.9168 305.787Z" fill="black" fill-opacity="0.1"/>
<path d="M-15.3833 317.318C-10.6736 316.023 -5.74052 315.87 -0.953219 316.87C4.05219 317.756 8.97909 319.092 13.7735 320.863C24.6054 324.671 35.6189 328.287 46.095 333.113C51.6391 335.478 56.8484 338.643 61.5727 342.516C62.108 342.967 61.362 343.751 60.8463 343.289C56.6505 339.86 52.0124 337.081 47.0744 335.037C42.1693 332.92 37.0296 331.471 32.0114 329.671L15.6861 323.77C11.1122 322.051 6.44675 320.62 1.71462 319.486C-1.01338 318.845 -3.78886 318.462 -6.57857 318.343C-9.35192 318.331 -12.1199 318.565 -14.8529 319.043C-15.0565 319.074 -15.2642 319.025 -15.4365 318.905C-15.6089 318.786 -15.7339 318.604 -15.7878 318.394C-15.8418 318.184 -15.8209 317.962 -15.7292 317.768C-15.6375 317.575 -15.4813 317.424 -15.2902 317.344L-15.3833 317.318Z" fill="black" fill-opacity="0.1"/>
</g>
<g clip-path="url(#clip1_505_822)">
<path d="M1815.19 302.179C1816.41 298.836 1818.3 295.816 1820.75 293.329C1823.2 290.843 1826.14 288.952 1829.35 287.789C1831.5 287.011 1833.53 285.826 1835.61 284.84C1833.71 283.907 1831.65 283.384 1829.55 283.303C1824.59 283.117 1819.9 280.895 1816.48 277.113C1815.81 276.054 1815.37 274.859 1815.17 273.606C1814.97 272.353 1815.03 271.071 1815.34 269.844C1815.96 267.458 1818.65 268.531 1820.36 269.281C1825.9 271.601 1831.98 273.271 1836.75 276.832C1842.99 281.581 1849.8 281.57 1856.69 282.478C1845.72 277.444 1836.51 268.932 1830.36 258.133C1828.97 255.603 1827.43 255.641 1825.25 256.643C1820.05 258.979 1814.18 259.064 1808.91 256.877C1803.65 254.69 1799.41 250.408 1797.13 244.963C1796.62 243.783 1796.4 241.709 1797.05 240.995C1797.6 240.614 1798.23 240.36 1798.89 240.248C1799.54 240.136 1800.22 240.168 1800.86 240.344C1804.43 241.036 1807.94 242.029 1811.47 242.915L1812.13 242.99L1811.55 242.622C1810.96 241.834 1810.32 241.096 1809.63 240.414C1805 236.08 1801.68 230.41 1800.1 224.113C1799.92 222.668 1799.98 221.202 1800.29 219.782C1801.43 219.932 1802.74 219.705 1803.68 220.205C1810.17 223.405 1815.87 228.128 1820.35 234.012C1819.41 229.832 1818.77 225.585 1818.43 221.306C1818.37 214.912 1816.42 208.693 1812.86 203.499C1810.94 199.881 1809.2 196.162 1807.63 192.357C1807.15 191.482 1805.71 190.321 1805.01 190.5C1791.35 194.016 1780.6 185.729 1769.01 180.793C1766.56 179.801 1766.63 177.276 1769.11 175.9C1771.16 174.706 1773.41 173.954 1775.74 173.688C1784.86 173.09 1793.95 175.269 1801.93 179.965C1800.31 174.841 1798.51 170.278 1797.44 165.544C1796.02 159.186 1795.56 152.721 1798.52 146.581C1799.91 143.734 1802 142.988 1803.71 144.997C1805.9 147.385 1807.74 150.101 1809.16 153.057C1811.02 157.305 1812.05 161.902 1812.19 166.573C1812.33 171.245 1811.57 175.897 1809.96 180.253C1809.2 182.242 1808.94 184.407 1809.22 186.534C1810.68 193.206 1813.44 199.49 1817.32 204.992C1818.46 198.07 1819.42 191.661 1820.69 185.386C1823.09 174.001 1827.11 163.062 1832.6 152.934C1833.31 151.842 1833.68 150.549 1833.66 149.228C1833.64 147.908 1833.24 146.624 1832.51 145.551C1830.53 142.336 1828.86 138.91 1826.93 135.662C1822.29 127.735 1817.21 120.393 1807.19 119.921C1806.87 119.886 1806.56 119.798 1806.27 119.661C1800.04 117.542 1794.8 113.044 1791.58 107.058C1790.15 104.454 1791.22 102.54 1794.03 102.297C1794.98 102.328 1795.91 102.476 1796.82 102.739C1804.25 104.317 1811.31 106.734 1816.63 112.088C1816.94 107.823 1817.49 103.582 1818.3 99.3904C1818.72 97.7002 1821 96.538 1822.45 95.1394C1823.81 96.3341 1824.95 97.7794 1825.81 99.4038C1828.06 106.922 1828.31 114.363 1824.04 121.411C1823.76 122.048 1823.62 122.746 1823.64 123.45C1823.66 124.154 1823.83 124.844 1824.15 125.464C1827.78 131.722 1831.61 137.833 1835.46 143.934C1835.64 144.25 1837.24 144.121 1837.33 143.895C1839.33 137.969 1842.14 132.146 1842.91 126.046C1844.31 114.732 1838.67 106.098 1830.97 98.7846C1819.95 88.3201 1799.35 81.8587 1785.04 92.8425C1783.4 94.0053 1782.12 95.6424 1781.35 97.5551C1779.97 101.244 1778.02 104.67 1775.59 107.699C1771.1 112.533 1766.37 117.115 1761.42 121.425C1760.36 122.415 1758.32 123.6 1757.46 123.153C1756.76 122.678 1756.16 122.059 1755.7 121.334C1755.24 120.609 1754.92 119.792 1754.76 118.934C1754.36 116.218 1754.53 113.442 1755.27 110.805C1756 108.168 1757.28 105.735 1759.02 103.68C1762.57 98.8986 1767.66 96.6761 1772.73 94.3019L1772.96 94.1626L1772.73 94.3019L1767.05 94.396C1763.33 94.5158 1759.63 93.7121 1756.26 92.05C1752.89 90.3879 1749.93 87.9142 1747.64 84.8297C1744.22 80.3285 1745.58 77.3188 1750.98 76.9729C1754.95 76.6241 1758.94 76.6979 1762.89 77.1929C1770.63 78.3854 1777.73 81.0985 1781.2 89.4642C1782.01 91.4533 1783.04 90.6289 1784.14 89.9348C1795.93 82.4953 1808.06 82.7304 1820.44 88.1264C1822.66 89.0846 1824.87 90.1014 1827.07 91.0997C1826.71 90.4398 1826.26 89.8333 1825.75 89.2963C1817.18 82.085 1808.8 74.3431 1797.51 71.862C1788.88 69.9752 1783.28 63.618 1778.42 56.5708C1777.51 55.2612 1778.03 52.8621 1777.88 50.9663C1779.38 50.8287 1780.89 50.89 1782.37 51.1486C1791.28 53.8184 1799.54 58.4982 1806.56 64.8619C1806.4 62.8223 1806.21 61.0066 1806.12 59.1745C1805.69 53.8154 1807.18 48.4832 1810.31 44.2322C1813.32 40.196 1816.91 40.4059 1818.14 44.9183C1819.67 50.4636 1820.62 56.1653 1820.98 61.924C1821.16 64.188 1820.81 66.4639 1819.95 68.5476C1819.09 70.6312 1817.76 72.4573 1816.06 73.862C1813.56 75.8453 1814.26 76.4659 1816.34 77.7123C1818.29 78.8043 1820.12 80.1269 1821.78 81.6543C1825.62 85.2811 1829.26 89.1409 1832.67 93.214C1835.18 96.698 1837.5 100.342 1839.59 104.126C1840.13 101.531 1840.39 98.8768 1840.35 96.2178C1841.13 86.1256 1845.31 82.4977 1851.68 80.273C1855.21 79.0527 1856.39 80.268 1856.12 84.0564C1855.2 93.715 1852.82 102.724 1845.18 109.117C1844.04 110.083 1843.64 110.598 1844.31 112.25C1845.82 115.75 1846.63 119.54 1846.69 123.383C1846.74 127.225 1846.04 131.036 1844.63 134.579C1841.59 142.378 1838.04 149.988 1834.46 157.59C1830.58 165.249 1827.78 173.456 1826.14 181.959C1828.78 180.561 1831.24 178.797 1833.44 176.713C1839.27 170.924 1844.64 164.614 1850.75 159.173C1852.46 157.883 1853.75 156.067 1854.44 153.974C1855.13 151.881 1855.19 149.614 1854.61 147.484C1853.63 142.465 1853.1 137.359 1853.04 132.237C1853.08 129.401 1853.67 126.603 1854.75 124.006C1855.83 121.409 1857.39 119.064 1859.34 117.105C1861.89 114.368 1864.13 114.921 1865.4 118.392C1865.7 119.334 1865.93 120.302 1866.07 121.285C1867.73 130.546 1866.79 140.108 1863.38 148.814L1868.21 147.128C1873.9 145.167 1879.63 144.05 1885.22 147.107C1886.02 147.491 1886.73 148.05 1887.3 148.746C1887.88 149.442 1888.3 150.259 1888.55 151.142C1888.37 152.07 1887.99 152.944 1887.45 153.701C1886.91 154.458 1886.21 155.08 1885.42 155.523C1881.69 157.716 1877.59 159.11 1873.34 159.622C1869.1 160.134 1864.8 159.755 1860.69 158.506C1859.45 158.02 1858.09 157.94 1856.8 158.278C1855.52 158.616 1854.36 159.355 1853.48 160.398C1847.94 166.237 1842.4 172.075 1836.71 177.779C1833.77 180.704 1830.98 183.908 1826.57 184.722C1825.95 184.988 1825.41 185.409 1824.98 185.949C1824.55 186.489 1824.26 187.131 1824.12 187.818C1823.23 197.042 1821.78 206.33 1822.06 215.539C1822.38 232.256 1827.77 248.436 1837.43 261.733C1840.83 266.447 1848.41 273.114 1852.49 274.456C1851.68 272.198 1850.73 269.746 1849.9 267.248C1848.91 263.453 1846.6 260.186 1843.43 258.098C1839.31 255.513 1836.11 251.572 1834.34 246.888C1832.68 242.633 1831.95 238.244 1834.02 233.911C1835.99 229.94 1838.71 229.578 1840.5 233.507C1842.65 238.289 1844.51 243.208 1846.07 248.236C1847.07 251.252 1847.56 254.454 1848.28 257.565L1849.3 257.415C1849.24 255.668 1849.25 253.926 1849.12 252.192C1848.45 242.873 1852.99 238.482 1859.67 234.458C1861.3 233.472 1863.19 233.219 1863.08 236.363C1862.99 245.767 1861.64 254.597 1853.61 260.61C1853.1 261.043 1852.69 261.591 1852.42 262.213C1852.14 262.835 1852.01 263.515 1852.02 264.201C1853.62 274.194 1858.91 279.521 1868.37 281.077C1869.93 281.351 1871.52 281.472 1873.1 281.437C1898.98 280.633 1917.31 267.484 1928.46 243.334C1932.56 234.995 1934.03 225.504 1932.68 216.22C1931.92 211.447 1929.9 207.513 1925.61 205.769C1919.9 203.45 1913.94 201.686 1908.05 199.946C1907 199.617 1905.43 200.59 1904.31 201.295C1899.09 204.458 1894.19 208.198 1888.9 211.135C1883.6 214.072 1877.74 215.246 1872.23 211.317C1870.56 210.122 1867.82 208.658 1868.91 205.886C1870.01 204.224 1871.62 203.013 1873.47 202.456C1879.64 199.926 1885.9 197.67 1891.94 195.398C1889.12 192.621 1886.52 190.252 1884.19 187.694C1883.9 187.236 1883.71 186.712 1883.65 186.164C1883.58 185.615 1883.64 185.06 1883.83 184.542C1884.11 183.947 1885.69 183.637 1886.59 183.831C1894.56 185.451 1902.45 187.239 1907.38 195.12C1907.95 195.92 1908.76 196.501 1909.68 196.776C1915.83 198.749 1922.02 200.606 1928.34 202.579C1923.65 195.501 1918.56 188.66 1911.51 183.981C1906.57 180.701 1901.43 177.692 1895.4 177.202C1884.18 176.217 1874.25 179.953 1865.12 186.458C1864.8 186.761 1864.54 187.129 1864.36 187.541C1864.18 187.952 1864.08 188.398 1864.07 188.851C1864.01 195.464 1860.77 200.506 1856.92 205.219C1853.07 209.932 1849.44 214.141 1845.59 218.49C1844.56 219.379 1843.43 220.123 1842.23 220.7C1841.41 219.395 1840.81 217.956 1840.45 216.443C1839.97 208.385 1842.51 200.452 1847.52 194.346C1847.93 193.849 1848.4 193.416 1848.78 192.911C1849.17 192.406 1849.26 192.102 1849.1 192.371C1844.95 192.206 1840.73 192.21 1836.55 191.797C1835.98 191.622 1835.45 191.307 1835.02 190.879C1834.59 190.451 1834.26 189.922 1834.06 189.335C1833.85 188.646 1834.82 187.161 1835.65 186.609C1838.56 184.311 1841.73 182.392 1845.08 180.894C1850.31 179.039 1855.8 177.87 1860.76 182.304C1861.19 182.536 1861.68 182.664 1862.16 182.68C1862.65 182.697 1863.14 182.6 1863.59 182.396C1866.22 181.252 1868.73 179.825 1871.31 178.558C1880.83 173.953 1890.64 171.803 1901.08 174.577C1900.29 173.568 1899.53 172.567 1898.72 171.569C1896.38 168.96 1894.64 165.829 1893.62 162.41C1892.6 158.992 1892.34 155.376 1892.85 151.837C1893.3 148.855 1894.67 148.125 1896.51 149.916C1903.92 156.507 1908.87 165.646 1910.47 175.705C1910.57 176.861 1910.92 177.977 1911.5 178.965C1912.08 179.953 1912.87 180.785 1913.81 181.394C1922.47 188.051 1929.61 195.976 1933.49 206.847C1936.23 214.574 1937.13 222.883 1936.12 231.053C1938.36 225.477 1940.4 219.924 1942.09 214.239C1943.09 210.799 1944.97 206.613 1943.9 203.765C1942.99 201.214 1938.76 199.861 1935.9 198.144C1927.92 193.359 1923.77 186.296 1924.28 176.538C1924.39 174.164 1924.05 170.751 1926.92 170.399C1928.4 170.22 1930.6 172.556 1931.82 174.25C1935.64 179.621 1939.17 185.222 1943.03 191.071C1942.48 187.403 1943.12 183.65 1944.85 180.416C1946.58 177.182 1949.29 174.654 1952.56 173.237C1953.74 172.644 1955.88 171.866 1956.33 172.386C1957.18 173.628 1957.58 175.144 1957.46 176.665C1956.83 186.152 1953.16 194.577 1949.33 203.051C1947.19 207.744 1945.69 212.696 1943.89 217.484C1947.21 216.017 1949.62 214.135 1952.25 212.692C1954.8 211.186 1957.62 210.232 1960.53 209.885C1963.44 209.538 1966.39 209.807 1969.2 210.674C1969.76 210.893 1970.26 211.232 1970.68 211.668C1971.11 212.104 1971.44 212.627 1971.66 213.205C1971.87 213.894 1970.91 215.243 1970.18 215.962C1968.65 217.418 1967.01 218.749 1965.29 219.942C1960.01 223.59 1954.67 227.944 1948 227.099C1942.43 226.359 1940.01 228.3 1938.06 233.501C1936.34 238.014 1932.81 241.639 1930.85 246.13C1925.01 259.445 1915.26 270.44 1903.03 277.504C1888.31 285.858 1872.15 287.22 1855.75 285.875C1852.77 285.518 1849.8 284.97 1846.88 284.234C1844.68 283.785 1843.33 283.907 1842.49 286.893C1841.33 290.063 1839.63 292.98 1837.46 295.5C1832.16 301.939 1823.94 302.086 1817.06 305.093C1814.95 306.023 1814.29 304.313 1815.19 302.179ZM1813.31 247.284C1809.45 245.976 1805.42 245.198 1800.71 244.009C1804.78 252.78 1816.34 257.601 1824.31 254.382C1824.81 254.056 1825.25 253.638 1825.61 253.147C1825.19 252.692 1824.71 252.298 1824.19 251.975C1820.49 250.397 1816.96 248.597 1813.22 247.338L1813.31 247.284ZM1803.43 223.781C1806.66 234.595 1813.62 240.252 1822.3 245.233C1818.88 235.075 1812.23 229.11 1803.34 223.834L1803.43 223.781ZM1803.78 149.149C1803.24 148.411 1802.47 147.902 1801.6 147.717C1801.3 147.678 1800.58 148.858 1800.29 149.626C1798.09 156.768 1799.48 163.714 1801.73 170.51C1802.84 173.857 1804.36 177.052 1806.07 181.227C1810.96 169.329 1809.98 159.009 1803.7 149.222L1803.78 149.149ZM1816.54 116.606C1810.86 109.879 1803.55 106.698 1794.75 105.581C1795.63 107.7 1796.9 109.612 1798.49 111.204C1800.08 112.796 1801.96 114.034 1804.02 114.846C1807.64 116.449 1811.46 117.558 1815.2 118.787C1815.94 118.905 1816.69 118.9 1817.43 118.773C1817.19 118.004 1816.84 117.281 1816.37 116.636L1816.54 116.606ZM1824.07 114.329C1825.44 109.194 1824.94 103.703 1822.67 98.926C1821.66 101.197 1820.91 103.585 1820.43 106.041C1820.36 108.846 1820.62 111.649 1821.18 114.393C1821.45 115.694 1821.82 116.974 1822.27 118.222C1822.93 116.993 1823.47 115.699 1823.89 114.359L1824.07 114.329ZM1761.3 106.241C1759.81 109.095 1758.63 112.114 1757.78 115.244C1757.46 116.332 1758.11 117.725 1758.31 118.992L1761.51 117.35C1767.24 112.163 1773.79 107.224 1777.6 99.4341C1778.09 98.5984 1778.45 97.6863 1778.66 96.7319C1778.71 96.3535 1777.39 95.3678 1777.25 95.4536C1771.85 99.3499 1764.69 100.065 1761.13 106.271L1761.3 106.241ZM1770.23 82.5179C1764.18 79.7102 1757.69 79.7008 1751.21 80.0083C1750.49 80.1649 1749.79 80.4456 1749.15 80.8393C1749.36 81.7107 1749.7 82.5404 1750.17 83.2964C1753.67 87.6352 1758.67 90.3488 1764.06 90.8492C1767.77 91.0798 1771.61 90.8119 1775.36 91.069C1779.11 91.3261 1778.3 89.9042 1777.2 87.2504C1774.95 85.4674 1772.57 83.8938 1770.06 82.5479L1770.23 82.5179ZM1805.4 69.2824C1802.01 66.1191 1798.45 63.1704 1794.72 60.452C1791.17 58.283 1787.47 56.3786 1783.67 54.7526C1782.93 54.5403 1782.16 54.4358 1781.4 54.4418L1781.74 56.9121C1785.26 61.9369 1790.08 65.7837 1795.64 67.986C1798.52 68.9416 1801.31 69.9801 1804.16 70.9279C1804.61 71.0031 1805.06 71.0139 1805.5 70.96C1805.48 70.4034 1805.59 69.5693 1805.27 69.2909L1805.4 69.2824ZM1813 72.2918C1814.98 70.2362 1816.55 67.7911 1817.63 65.0959C1819.45 58.8057 1817.19 52.7126 1815.74 46.6935C1814.89 44.4568 1813.38 44.6757 1812.65 46.2607C1810.96 49.2118 1809.84 52.4856 1809.36 55.8938C1809.46 61.0039 1809.9 66.1009 1810.68 71.1476C1810.69 73.0999 1811.75 73.6684 1812.87 72.3003L1813 72.2918ZM1827.28 91.3172C1827.42 91.5591 1827.67 91.7259 1827.88 91.9249C1827.82 91.8132 1827.89 91.5972 1827.85 91.5707C1827.67 91.4726 1827.48 91.3879 1827.28 91.3172ZM1845.15 105.289C1848.79 100.904 1851.28 95.6011 1852.37 89.8986C1852.55 89.0919 1852.66 88.2708 1852.7 87.4443C1852.77 86.0644 1852.72 84.7009 1852.78 83.3024L1847.76 84.3367C1846.09 87.263 1844.72 90.3705 1843.68 93.6053C1843.16 97.198 1842.99 100.839 1843.19 104.469C1843.25 105.045 1843.4 105.608 1843.64 106.134C1844.19 105.96 1844.71 105.673 1845.15 105.289ZM1883.04 153.169C1883.8 152.64 1884.53 152.058 1885.22 151.427C1884.35 150.759 1883.5 149.543 1882.63 149.519C1878.61 149.274 1874.58 149.451 1870.59 150.048C1867.17 151.121 1863.86 152.532 1860.69 154.263L1861.12 155.42C1868.55 156.371 1876 157.312 1883.02 153.132L1883.04 153.169ZM1861.53 144.975C1864.02 137.271 1864.54 129.009 1863.03 121.022C1862.57 119.953 1862.01 118.937 1861.36 117.99C1859.69 121.092 1858.17 124.282 1856.8 127.548C1854.79 133.234 1856.03 139.006 1856.96 144.692C1857.31 146.739 1857.88 148.723 1858.36 150.743C1859.58 148.93 1860.65 146.999 1861.53 144.975ZM1801.69 183.607C1794.44 178.835 1785.99 176.461 1777.45 176.794C1775.48 176.898 1773.54 177.278 1771.58 177.526C1780.57 182.344 1789.21 187.925 1799.59 188.153C1799.91 188.199 1800.22 188.183 1800.53 188.104C1802.07 187.47 1803.58 186.779 1805.09 186.108C1803.99 185.185 1802.84 184.325 1801.65 183.532L1801.69 183.607ZM1854.4 255.837C1856.33 253.683 1857.82 251.145 1858.79 248.373C1859.77 245.6 1860.21 242.65 1860.08 239.695C1860.08 239.445 1858.75 238.864 1858.3 239.084C1856.71 239.807 1855.33 240.951 1854.29 242.404C1853.25 243.856 1852.59 245.568 1852.36 247.372C1852.16 250.303 1852.15 253.245 1852.32 256.178C1853.29 256.041 1854.08 256.155 1854.45 255.93L1854.4 255.837ZM1887.48 200.708C1883.16 202.112 1878.92 203.839 1874.65 205.462C1873.95 205.763 1873.28 206.113 1872.63 206.511C1873.06 207.319 1873.62 208.035 1874.31 208.619C1876.41 209.746 1878.77 210.273 1881.13 210.147C1883.49 210.022 1885.77 209.25 1887.76 207.906C1892.88 204.999 1897.84 201.794 1902.93 198.706C1897.41 196.597 1892.47 199.069 1887.48 200.708ZM1889.4 186.744L1888.83 188.03C1892.51 191.851 1896.68 194.458 1902.07 194.094L1902.57 192.899L1889.4 186.744ZM1856.44 183.207C1851.11 181.606 1846.26 183.428 1840.89 185.889L1839.13 188.346C1840.16 188.637 1841.29 189.365 1842.23 189.143C1847.08 187.966 1851.89 186.589 1856.7 185.212C1857.11 184.995 1857.48 184.686 1857.78 184.307C1857.34 183.931 1856.95 183.349 1856.44 183.207ZM1856.31 190.729C1848.98 196.535 1843.3 204.172 1843.8 215.503C1850.03 208.38 1856.7 202.721 1860.11 194.254C1860.67 192.406 1861.06 190.507 1861.29 188.582C1859.54 189.055 1857.85 189.751 1856.27 190.655L1856.31 190.729ZM1895.89 153.215C1895.2 161.917 1898.75 168.45 1907.77 175.633C1905.76 167.16 1901.65 159.398 1895.85 153.141L1895.89 153.215ZM1950.69 192.624C1952.28 187.791 1953.53 182.817 1954.85 177.876C1954.91 177.08 1954.85 176.278 1954.67 175.501L1952.87 175.998C1947.74 180.08 1945.2 185.068 1946.09 191.622C1946.43 194.169 1946.92 196.698 1947.35 199.239C1948.65 197.142 1949.77 194.928 1950.69 192.624ZM1929.46 176.052C1928.97 175.573 1928.45 175.126 1927.9 174.715C1927.6 175.285 1927.39 175.898 1927.27 176.534C1927.14 182.94 1928.63 188.688 1933.8 192.695C1936.22 194.526 1938.78 196.127 1941.92 198.288C1939.66 189.845 1935.37 182.154 1929.45 175.956L1929.46 176.052ZM1945.55 224.365C1951.56 225.165 1956.51 222.336 1961.22 218.964C1963.39 217.645 1965.57 216.327 1967.74 215.008C1968.1 214.73 1968.42 214.402 1968.69 214.034C1968.24 213.739 1967.75 213.502 1967.24 213.326C1962.92 212.252 1958.37 213.013 1954.59 215.442C1951.19 217.501 1947.98 219.847 1944.71 222.099C1944.24 222.534 1943.82 223.029 1943.47 223.572C1944.13 223.891 1944.83 224.125 1945.55 224.269L1945.55 224.365ZM1844.47 252.482C1842.68 247.436 1840.92 242.38 1839.05 237.359C1838.61 236.565 1838.05 235.85 1837.39 235.24C1836.82 236.137 1836.39 237.126 1836.12 238.167C1835.55 244.716 1838.84 249.244 1843.05 253.244L1844.47 252.482ZM1818.7 271.924C1818.27 272.371 1817.95 272.923 1817.77 273.531C1819.58 275.237 1821.27 277.681 1823.43 278.335C1827.75 279.434 1832.13 280.24 1836.55 280.751C1831.73 275.288 1825.06 273.924 1818.66 271.946L1818.7 271.924ZM1837.33 280.798L1836.94 280.832L1837.02 280.962C1837.02 280.962 1837.22 280.863 1837.29 280.82L1837.33 280.798ZM1839.1 286.595C1832.4 291.005 1823.75 291.582 1819.58 299.991C1829.66 299.286 1837.04 294.295 1839.06 286.616L1839.1 286.595Z" fill="black" fill-opacity="0.1"/>
</g>
<defs>
<clipPath id="clip0_505_822">
<rect width="127.641" height="65.8313" fill="white" transform="matrix(-0.855134 0.518406 0.481817 0.876272 92.1505 251.823)"/>
</clipPath>
<clipPath id="clip1_505_822">
<rect width="188.076" height="258.936" fill="white" transform="matrix(-0.855134 0.518406 0.481817 0.876272 1861.83 0)"/>
</clipPath>
</defs>
</svg>
